<svg xmlns="http://www.w3.org/2000/svg" xmlns:xlink="http://www.w3.org/1999/xlink" width="500" zoomAndPan="magnify" viewBox="0 0 375 374.999991" height="500" preserveAspectRatio="xMidYMid meet" version="1.0"><defs><g/><clipPath id="97a3af2f82"><path d="M 37.5 37.5 L 337.5 37.5 L 337.5 337.5 L 37.5 337.5 Z M 37.5 37.5 " clip-rule="nonzero"/></clipPath><clipPath id="4ad5938144"><path d="M 187.5 37.5 C 104.65625 37.5 37.5 104.65625 37.5 187.5 C 37.5 270.34375 104.65625 337.5 187.5 337.5 C 270.34375 337.5 337.5 270.34375 337.5 187.5 C 337.5 104.65625 270.34375 37.5 187.5 37.5 Z M 187.5 37.5 " clip-rule="nonzero"/></clipPath><clipPath id="0e97ec4252"><path d="M 50.925781 50.960938 L 324.003906 50.960938 L 324.003906 324.039062 L 50.925781 324.039062 Z M 50.925781 50.960938 " clip-rule="nonzero"/></clipPath><clipPath id="343a4b02ff"><path d="M 187.464844 50.960938 C 112.054688 50.960938 50.925781 112.089844 50.925781 187.5 C 50.925781 262.910156 112.054688 324.039062 187.464844 324.039062 C 262.875 324.039062 324.003906 262.910156 324.003906 187.5 C 324.003906 112.089844 262.875 50.960938 187.464844 50.960938 Z M 187.464844 50.960938 " clip-rule="nonzero"/></clipPath><clipPath id="8739cd5548"><path d="M 50.925781 50.960938 L 323.925781 50.960938 L 323.925781 323.960938 L 50.925781 323.960938 Z M 50.925781 50.960938 " clip-rule="nonzero"/></clipPath><clipPath id="1ae64bd1de"><path d="M 187.460938 50.960938 C 112.054688 50.960938 50.925781 112.089844 50.925781 187.496094 C 50.925781 262.902344 112.054688 324.03125 187.460938 324.03125 C 262.867188 324.03125 323.996094 262.902344 323.996094 187.496094 C 323.996094 112.089844 262.867188 50.960938 187.460938 50.960938 Z M 187.460938 50.960938 " clip-rule="nonzero"/></clipPath><clipPath id="fb030a7a2e"><path d="M 62.492188 202.261719 L 72.847656 202.261719 L 72.847656 212.617188 L 62.492188 212.617188 Z M 62.492188 202.261719 " clip-rule="nonzero"/></clipPath><clipPath id="b0bd9ebe27"><path d="M 67.671875 202.261719 C 64.808594 202.261719 62.492188 204.578125 62.492188 207.4375 C 62.492188 210.296875 64.808594 212.617188 67.671875 212.617188 C 70.53125 212.617188 72.847656 210.296875 72.847656 207.4375 C 72.847656 204.578125 70.53125 202.261719 67.671875 202.261719 Z M 67.671875 202.261719 " clip-rule="nonzero"/></clipPath><clipPath id="c31de5c171"><path d="M 298.726562 202.261719 L 309.082031 202.261719 L 309.082031 212.617188 L 298.726562 212.617188 Z M 298.726562 202.261719 " clip-rule="nonzero"/></clipPath><clipPath id="bb79103855"><path d="M 303.90625 202.261719 C 301.042969 202.261719 298.726562 204.578125 298.726562 207.4375 C 298.726562 210.296875 301.042969 212.617188 303.90625 212.617188 C 306.765625 212.617188 309.082031 210.296875 309.082031 207.4375 C 309.082031 204.578125 306.765625 202.261719 303.90625 202.261719 Z M 303.90625 202.261719 " clip-rule="nonzero"/></clipPath></defs><rect x="-37.5" width="450" fill="#ffffff" y="-37.499999" height="449.999989" fill-opacity="1"/><rect x="-37.5" width="450" fill="#ffffff" y="-37.499999" height="449.999989" fill-opacity="1"/><g clip-path="url(#97a3af2f82)"><g clip-path="url(#4ad5938144)"><path fill="#a9a9a9" d="M 37.5 37.5 L 337.5 37.5 L 337.5 337.5 L 37.5 337.5 Z M 37.5 37.5 " fill-opacity="1" fill-rule="nonzero"/><path stroke-linecap="butt" transform="matrix(0.75, 0, 0, 0.75, 37.500002, 37.499998)" fill="none" stroke-linejoin="miter" d="M 200.00001 0.00000328333 C 89.54167 0.00000328333 -0.00000271667 89.541676 -0.00000271667 200.000016 C -0.00000271667 310.458357 89.54167 400.00003 200.00001 400.00003 C 310.458351 400.00003 400.000024 310.458357 400.000024 200.000016 C 400.000024 89.541676 310.458351 0.00000328333 200.00001 0.00000328333 Z M 200.00001 0.00000328333 " stroke="#242424" stroke-width="14" stroke-opacity="1" stroke-miterlimit="4"/></g></g><g clip-path="url(#0e97ec4252)"><g clip-path="url(#343a4b02ff)"><path fill="#ffffff" d="M 50.925781 50.960938 L 324.003906 50.960938 L 324.003906 324.039062 L 50.925781 324.039062 Z M 50.925781 50.960938 " fill-opacity="1" fill-rule="nonzero"/></g></g><g clip-path="url(#8739cd5548)"><g clip-path="url(#1ae64bd1de)"><path stroke-linecap="butt" transform="matrix(0.75, 0, 0, 0.75, 50.92496, 50.960457)" fill="none" stroke-linejoin="miter" d="M 182.04797 0.000641129 C 81.506303 0.000641129 0.00109453 81.50585 0.00109453 182.047516 C 0.00109453 282.589183 81.506303 364.094392 182.04797 364.094392 C 282.589637 364.094392 364.094845 282.589183 364.094845 182.047516 C 364.094845 81.50585 282.589637 0.000641129 182.04797 0.000641129 Z M 182.04797 0.000641129 " stroke="#242424" stroke-width="4" stroke-opacity="1" stroke-miterlimit="4"/></g></g><path fill="#242424" d="M 105.433594 227.171875 C 104.863281 227.332031 104.867188 227.339844 105.097656 227.867188 C 106.714844 231.648438 108.808594 235.335938 111.015625 238.753906 C 111.777344 236.242188 111.585938 233.460938 111.605469 230.839844 C 111.328125 229.96875 116.804688 226.421875 117.742188 225.621094 C 116.726562 227.382812 115.132812 228.894531 113.886719 230.539062 C 113.648438 230.828125 113.46875 231.109375 113.445312 231.503906 C 113.351562 233.214844 113.242188 234.929688 113.117188 236.636719 C 113.164062 237.84375 112.429688 241.214844 112.964844 241.949219 C 114.183594 243.757812 115.519531 245.476562 116.855469 247.199219 C 116.980469 247.339844 117.230469 247.804688 117.386719 247.53125 C 117.515625 246.3125 117.589844 245.078125 117.644531 243.855469 C 117.742188 240.304688 117.816406 236.757812 117.890625 233.207031 C 117.898438 232.730469 117.988281 232.289062 118.230469 231.878906 C 119.703125 229.5 120.933594 226.871094 122.613281 224.664062 C 122.433594 226.4375 121.835938 228.257812 121.03125 229.882812 C 120.511719 231.027344 119.683594 232.089844 119.6875 233.402344 C 119.445312 238.601562 119.40625 243.808594 119.125 249.003906 C 118.34375 250.425781 126.699219 257.472656 128.054688 258.9375 C 128.28125 259.113281 128.921875 259.730469 128.914062 259.398438 C 126.214844 251.8125 125.554688 243.6875 125.339844 235.695312 C 125.285156 233.957031 126.117188 232.375 126.578125 230.738281 C 126.703125 230.484375 126.769531 229.890625 126.984375 229.785156 C 126.792969 232.128906 126.710938 234.527344 126.679688 236.902344 C 126.699219 236.902344 126.722656 236.902344 126.742188 236.902344 C 126.742188 237.710938 126.734375 238.519531 126.746094 239.324219 C 126.878906 246.246094 127.851562 253.1875 129.640625 259.878906 C 129.757812 260.289062 129.953125 260.605469 130.277344 260.871094 C 135.5625 265.34375 141.484375 269.011719 147.707031 272.027344 C 147.8125 272.070312 147.929688 272.164062 148.03125 272.0625 C 146.214844 269.710938 144.066406 267.546875 142.214844 265.195312 C 141.398438 264.191406 141.289062 262.84375 140.835938 261.667969 C 138.5625 254.339844 135.441406 247.269531 132.695312 240.144531 C 132.777344 234.378906 133.277344 228.554688 134.34375 222.898438 C 135.15625 230.066406 136.089844 237.265625 137.6875 244.320312 C 138.296875 247.117188 140.191406 249.40625 141.488281 251.910156 C 144.117188 256.324219 146.769531 260.8125 149.953125 264.832031 C 146.4375 258.511719 143.128906 251.84375 140.328125 245.097656 C 140.152344 244.421875 141.492188 244.398438 141.21875 243.65625 C 139.0625 234.210938 136.398438 223.933594 139.878906 214.5 C 140.78125 212.199219 140.710938 209.566406 141.070312 207.226562 C 141.5625 208.726562 141.503906 210.496094 141.574219 212.105469 C 141.660156 213.59375 140.519531 214.667969 140.207031 216.0625 C 139.066406 221.058594 139.84375 226.363281 140.78125 231.328125 C 140.488281 225.84375 139.816406 219.742188 142.65625 214.765625 C 143.054688 214.191406 143.222656 213.515625 143.269531 212.828125 C 143.449219 212.488281 143.554688 213.457031 143.601562 213.570312 C 144.308594 217.066406 144.988281 220.566406 145.800781 224.039062 C 145.988281 224.507812 147.984375 233.816406 147.9375 231.621094 C 147.597656 221.8125 142.5 197.800781 148.089844 190.890625 C 148.707031 193.28125 149.320312 195.828125 149.492188 198.285156 C 149.0625 197.957031 147.507812 194.355469 147.621094 195.949219 C 147.695312 202.269531 148.796875 208.53125 148.707031 214.847656 C 149.070312 220.289062 149.542969 225.980469 151.527344 231.097656 C 152.460938 232.949219 153.1875 234.910156 154.265625 236.6875 C 155.117188 237.945312 154.109375 239.679688 155.085938 240.859375 C 158.769531 245.765625 162.34375 251.203125 167.164062 254.960938 C 161.15625 247.429688 156.730469 238.617188 153.734375 229.480469 C 153.058594 223.574219 153.433594 217.261719 155.398438 211.664062 C 155.886719 215.804688 156.339844 220.078125 157.054688 224.144531 C 157.054688 216.382812 156.480469 208.308594 157.46875 200.484375 C 157.757812 200.648438 157.691406 200.972656 157.804688 201.21875 C 158.417969 203.429688 158.6875 205.871094 159.378906 208.007812 C 159.546875 207.957031 159.425781 207.554688 159.445312 207.410156 C 159.210938 204.710938 159.164062 202.011719 159.304688 199.308594 C 159.402344 195.511719 160.757812 191.90625 162.261719 188.46875 C 162.355469 188.285156 162.507812 187.875 162.585938 188.070312 C 161.589844 192.109375 160.511719 196.480469 160.960938 200.589844 C 161.582031 199.046875 162.027344 197.3125 162.796875 195.84375 C 162.914062 195.984375 162.847656 196.167969 162.839844 196.335938 C 162.695312 197.359375 162.699219 198.390625 162.722656 199.417969 C 162.886719 201.585938 162.585938 203.972656 163.296875 206.023438 C 163.328125 204.707031 163.421875 203.363281 163.730469 202.078125 C 164.347656 203.699219 164.175781 205.601562 164.730469 207.246094 C 164.785156 205.480469 165.0625 203.613281 165.703125 201.96875 C 165.792969 203.714844 165.742188 205.507812 165.898438 207.269531 C 165.886719 207.34375 165.949219 207.429688 166.023438 207.390625 C 166.605469 205.597656 167.34375 203.753906 168.363281 202.167969 C 168.242188 203.1875 167.8125 204.203125 167.738281 205.226562 C 169.199219 203.152344 169.875 200.699219 172.480469 199.59375 C 175.074219 199.226562 164.601562 192.824219 168.152344 184.003906 C 168.335938 183.683594 168.421875 183.042969 168.898438 183.09375 C 169.386719 183.160156 169.679688 183.316406 169.90625 182.773438 C 172.429688 178.171875 170.300781 183.917969 171.222656 185.304688 C 171.984375 186.9375 173.972656 187.585938 175.722656 186.964844 C 176.652344 186.761719 177.566406 186.511719 178.523438 186.574219 C 178.605469 186.570312 178.648438 186.464844 178.589844 186.40625 C 177.46875 185.441406 175.074219 185.984375 173.640625 185.839844 C 172.941406 185.84375 172.585938 185.21875 172.355469 184.648438 C 172.148438 184.1875 173.425781 184.683594 173.660156 184.597656 C 177.945312 184.46875 180.257812 184.460938 183.941406 187 C 182.390625 181.433594 174.566406 174.019531 168.695312 178.417969 C 168.46875 178.554688 168.273438 178.820312 167.984375 178.765625 C 169.535156 175.542969 173.808594 175.324219 176.765625 176.539062 C 175.367188 175.074219 173.488281 174.035156 171.621094 173.242188 C 170.371094 172.855469 170.390625 171.800781 169.964844 170.773438 C 169.855469 170.238281 169.0625 169.988281 169.566406 169.433594 C 170.488281 168.484375 171.511719 167.625 172.558594 166.816406 C 171.015625 167.242188 169.539062 168.03125 168.371094 169.128906 C 168.367188 169.09375 168.355469 169.046875 168.367188 169.023438 C 168.671875 168.523438 168.921875 167.984375 169.292969 167.539062 C 169.859375 166.855469 170.535156 166.269531 171.328125 165.84375 C 171.457031 165.757812 171.632812 165.707031 171.699219 165.554688 C 171.5625 165.484375 171.441406 165.535156 171.3125 165.59375 C 170.417969 165.953125 169.503906 166.277344 168.664062 166.769531 C 168.460938 166.878906 168.25 167.003906 168.011719 166.984375 C 168.65625 166.222656 169.644531 165.695312 170.265625 164.9375 C 170.15625 164.875 169.984375 164.976562 169.871094 165.007812 C 168.195312 165.78125 166.574219 166.621094 165.160156 167.816406 C 165.101562 167.859375 165.058594 167.75 165.066406 167.722656 C 167.066406 164.453125 169.933594 161.882812 172.957031 159.609375 C 166.273438 161.644531 159.738281 169.03125 159.910156 176.238281 C 159.75 176.179688 159.691406 176.03125 159.613281 175.898438 C 159.128906 175.015625 158.660156 174.125 158.175781 173.242188 C 157.265625 175.988281 158.238281 178.9375 158.335938 181.75 C 158.78125 188.945312 158.234375 190.519531 154.964844 196.835938 C 154.953125 196.835938 154.933594 196.820312 154.929688 196.808594 C 155.0625 195.0625 155.167969 193.308594 155.328125 191.5625 C 155.578125 187.457031 157.367188 183.4375 156.652344 179.296875 C 156.164062 176.882812 155.609375 174.289062 154.464844 172.144531 C 154 175.617188 154.0625 179.191406 154.125 182.703125 C 154.152344 182.816406 154.105469 183.0625 153.957031 182.917969 C 152.648438 180.957031 152.144531 178.605469 151.109375 176.527344 C 150.601562 176.035156 151.105469 178.464844 150.898438 178.65625 C 150.394531 177.929688 150.347656 176.867188 149.824219 176.152344 C 150 178.347656 150.734375 180.941406 149.574219 182.957031 C 149.441406 182.917969 149.449219 182.769531 149.421875 182.660156 C 149.007812 180.007812 147.820312 177.546875 146.960938 175.019531 C 146.808594 174.613281 146.820312 174.257812 147.066406 173.875 C 147.433594 173.175781 148.320312 171.933594 148.269531 171.171875 C 145.464844 175.808594 140.757812 178.089844 135.605469 175.609375 C 138.644531 176.15625 142.09375 175.835938 144.410156 173.53125 C 144.503906 173.410156 145 172.941406 144.652344 172.917969 C 142.464844 173.609375 139.910156 174.078125 137.679688 173.40625 C 139.660156 173.230469 141.765625 173.390625 143.574219 172.363281 C 144.316406 172.097656 148.96875 167.691406 145.527344 169.921875 C 144.707031 170.738281 142.410156 169.699219 142.910156 169.4375 C 143.625 169.546875 144.355469 169.339844 144.746094 168.589844 C 144.792969 168.5 144.757812 168.433594 144.660156 168.421875 C 144.097656 168.394531 143.527344 168.308594 143.035156 168.011719 C 142.65625 167.808594 143.019531 167.425781 143.199219 167.214844 C 144.226562 166.714844 139.445312 163.261719 138.824219 163.042969 C 138.398438 162.8125 138.070312 162.503906 137.804688 162.117188 C 134.914062 156.359375 128.117188 153.707031 121.9375 154.121094 C 119.113281 154.566406 115.609375 156.808594 116.085938 160.046875 C 116.210938 162.234375 113.65625 163.382812 112.09375 164.371094 C 114.933594 163.515625 123.566406 160.871094 124.253906 165.488281 C 124.242188 165.695312 124.300781 165.839844 124.527344 165.882812 C 126.003906 166.269531 129.433594 167.109375 130.34375 168.242188 C 125.878906 167.246094 120.527344 168.09375 117.859375 172.203125 C 120.664062 170.746094 124.078125 170.382812 127.226562 170.960938 C 128.34375 171.191406 129.492188 171.457031 130.515625 171.945312 C 130.855469 172.261719 130.589844 172.746094 130.558594 173.136719 C 130.511719 173.542969 129.476562 172.855469 129.199219 172.859375 C 127.640625 172.476562 125.929688 172.105469 124.347656 172.359375 C 126.628906 173.109375 129.089844 174.640625 129.710938 177.117188 C 130.070312 178.683594 125.050781 177.808594 124.273438 177.351562 C 124.101562 177.300781 123.921875 177.171875 123.738281 177.246094 C 126.519531 179.722656 130.488281 180.710938 134.140625 180.570312 C 132.628906 181.164062 130.855469 181.25 129.300781 181.675781 C 130.480469 182.003906 131.832031 181.914062 133.070312 182.078125 C 134.035156 182.160156 135.003906 182.144531 135.972656 182.066406 C 136.125 182.070312 136.304688 182.015625 136.433594 182.117188 C 136.382812 182.257812 136.214844 182.269531 136.09375 182.320312 C 134.902344 182.726562 133.609375 182.953125 132.507812 183.566406 C 135.601562 183.128906 138.792969 182.589844 141.746094 181.476562 C 142.933594 181.125 144.097656 180.503906 145.367188 180.621094 C 146.191406 180.671875 146.6875 181.226562 146.667969 182.054688 C 146.613281 182.636719 146.519531 183.183594 146.976562 183.640625 C 150.890625 187.898438 152.546875 194.007812 151.289062 199.652344 C 151.097656 199.464844 151.148438 199.214844 151.128906 198.984375 C 151.085938 198.078125 151.015625 197.171875 150.902344 196.269531 C 150.207031 192.929688 149.328125 183.367188 144.625 183.878906 C 144.261719 183.898438 144.273438 183.628906 144.496094 183.429688 C 144.726562 183.238281 145.03125 183.144531 145.285156 182.988281 C 146.171875 182.464844 145.5625 181.382812 144.65625 181.46875 C 139.929688 181.890625 136.007812 185.914062 131.089844 185.386719 C 130.554688 185.351562 130.285156 184.757812 129.71875 184.859375 C 129.28125 184.90625 129.082031 184.660156 128.890625 184.292969 C 128.421875 183.761719 127.792969 184.894531 127.128906 183.957031 C 126.695312 183.347656 126.046875 184.371094 125.582031 183.933594 C 125.332031 183.691406 125.082031 183.320312 124.699219 183.359375 C 122.503906 183.496094 123.90625 184.820312 122.1875 182.132812 C 120.917969 179.882812 119.496094 180.582031 118.972656 179.582031 C 118.679688 178.898438 118.433594 178.1875 118.117188 177.515625 C 117.941406 177.152344 117.636719 176.984375 117.226562 177.03125 C 116.183594 177.296875 116.027344 176.90625 115.3125 176.246094 C 113.160156 174.445312 114.222656 170.070312 111.367188 169.035156 C 111.1875 169 111.144531 168.898438 111.140625 168.742188 C 111.0625 167.40625 111.25 165.988281 110.519531 164.785156 C 110.246094 164.207031 110.792969 163.585938 110.910156 163.011719 C 111.167969 162.3125 111.410156 161.609375 111.554688 160.871094 C 111.804688 160.078125 111.011719 159.808594 111.457031 159.300781 C 112.46875 157.925781 113.652344 156.722656 115.117188 155.820312 C 115.597656 155.527344 115.90625 155.121094 115.964844 154.566406 C 116.386719 152.847656 123.511719 152.234375 125.117188 152.75 C 131.992188 153.765625 136.453125 159.675781 141.902344 163.410156 C 149.480469 169.25 154.296875 161.683594 150.355469 168.515625 C 150.457031 168.535156 150.585938 168.4375 150.679688 168.390625 C 151.460938 167.859375 152.257812 167.335938 152.871094 166.601562 C 153.261719 166.246094 153.351562 165.683594 153.703125 165.304688 C 154.171875 166.050781 153.917969 167.082031 153.554688 167.835938 C 153.484375 168.027344 153.289062 168.230469 153.355469 168.4375 C 154.371094 167.453125 155.621094 166.558594 156.035156 165.101562 C 156.234375 164.441406 156.25 164.449219 156.808594 164.84375 C 157.109375 165.054688 157.390625 165.277344 157.609375 165.578125 C 158.261719 166.664062 156.109375 168.414062 155.65625 169.304688 C 155.675781 169.324219 155.734375 169.332031 155.753906 169.316406 C 156.164062 169.019531 156.558594 168.703125 156.976562 168.429688 C 157.367188 168.171875 157.757812 167.929688 158.046875 167.550781 C 158.078125 167.511719 158.144531 167.5 158.191406 167.472656 C 158.191406 167.527344 158.214844 167.59375 158.191406 167.632812 C 157.886719 168.109375 157.597656 168.597656 157.265625 169.050781 C 156.882812 169.648438 156.285156 170.136719 155.976562 170.761719 C 156.34375 170.679688 156.59375 170.332031 156.914062 170.144531 C 157.46875 169.746094 158.023438 169.347656 158.589844 168.960938 C 158.921875 168.644531 159.128906 168.945312 158.847656 169.257812 C 157.882812 170.882812 156.5 171.757812 159.242188 170.089844 C 160.53125 169.28125 160.980469 167.691406 161.761719 166.457031 C 162.859375 164.445312 164.230469 162.535156 166.046875 161.113281 C 166.105469 161.070312 166.257812 161.054688 166.183594 160.925781 C 165.277344 161.132812 164.433594 161.777344 163.695312 162.339844 C 163.652344 162.378906 163.566406 162.371094 163.5 162.386719 C 164.652344 159.429688 167.738281 157.574219 170.664062 156.664062 C 170.867188 156.605469 170.957031 156.492188 170.976562 156.277344 C 171.027344 155.570312 171.222656 154.894531 171.464844 154.226562 C 171.992188 152.640625 171.320312 153.230469 170.234375 153.472656 C 168.695312 153.949219 167.195312 154.550781 165.625 154.921875 C 165.496094 154.953125 165.359375 155.027344 165.234375 154.910156 C 166.8125 153.96875 169.445312 153.277344 169.269531 150.972656 C 169.214844 150.253906 169.230469 150.253906 169.800781 149.8125 C 170.335938 149.363281 171.058594 148.894531 171.378906 148.289062 C 169.585938 149.265625 167.472656 150.183594 165.386719 150.023438 C 168.222656 148.34375 167.785156 149.210938 164.464844 147.863281 C 164.390625 147.824219 164.335938 147.6875 164.453125 147.644531 C 165.078125 147.421875 165.695312 147.183594 166.289062 146.882812 C 166.316406 146.867188 166.34375 146.816406 166.34375 146.78125 C 165.394531 146.484375 164.183594 146.578125 163.316406 146.015625 C 164.335938 145.707031 165.433594 145.5625 166.402344 145.042969 C 166.878906 144.824219 167.375 144.65625 167.90625 144.625 C 168.039062 144.597656 168.265625 144.597656 168.335938 144.472656 C 168.304688 144.347656 168.132812 144.347656 168.03125 144.332031 C 166.183594 144.148438 164.324219 144.164062 162.476562 144.382812 C 162.308594 144.402344 162.253906 144.34375 162.328125 144.175781 C 162.859375 143.238281 162.53125 141.246094 163.5 140.796875 C 168.195312 138.707031 173.886719 139.484375 178.484375 141.25 C 174.546875 141.246094 170.574219 141.09375 166.644531 141.53125 C 166.46875 141.578125 165.992188 141.570312 165.945312 141.742188 C 170.617188 142.316406 175.53125 142.855469 180.257812 143.148438 C 176.992188 144.777344 173.230469 145.195312 169.695312 146.023438 C 169.511719 146.097656 169.054688 146.113281 169.007812 146.296875 C 171.429688 146.507812 174.253906 146.148438 176.652344 146.191406 C 174.980469 147.40625 173.0625 148.570312 172.046875 150.421875 C 172.140625 150.5 172.222656 150.417969 172.300781 150.363281 C 173.632812 149.371094 175.078125 148.574219 176.582031 147.875 C 177.996094 147.222656 179.484375 146.789062 180.976562 146.355469 C 181.109375 146.316406 181.253906 146.195312 181.40625 146.320312 C 178.878906 148.007812 175.550781 149.792969 174.765625 152.949219 C 177.132812 151.078125 179.820312 148.949219 182.871094 148.570312 C 182.070312 149.746094 181.160156 150.957031 180.507812 152.265625 C 180.449219 152.472656 179.285156 154.308594 179.734375 154.152344 C 180.941406 153.078125 182.164062 152.023438 183.5625 151.199219 C 184.261719 150.886719 185.429688 149.746094 186.148438 150.210938 C 189.441406 151.511719 193.015625 152.171875 196.554688 152.019531 C 193.449219 151.664062 190.394531 150.28125 188.273438 147.992188 C 190.910156 148.277344 193.457031 149.335938 196.121094 149.589844 C 196.027344 149.359375 195.785156 149.34375 195.597656 149.265625 C 193.464844 148.386719 191.238281 147.492188 189.234375 146.386719 C 192.304688 146.421875 195.335938 147.613281 198.230469 148.464844 C 195.546875 146.585938 192.390625 145.398438 189.207031 144.808594 C 194.539062 143.8125 199.882812 146.996094 204.425781 149.4375 C 202.132812 147.570312 199.433594 146.289062 196.878906 144.933594 C 199.75 145.40625 202.667969 145.996094 205.472656 146.867188 C 205.59375 146.886719 206.019531 147.0625 205.917969 146.855469 C 202.09375 145.363281 198.148438 144.15625 194.230469 142.9375 C 194.105469 142.761719 194.429688 142.785156 194.535156 142.777344 C 197.5 142.738281 200.46875 143.027344 203.394531 143.300781 C 201.171875 142.324219 198.6875 141.703125 196.265625 141.378906 C 195.746094 141.277344 194.96875 141.300781 194.542969 141.019531 C 200.445312 139.898438 206.242188 142.730469 211.15625 145.65625 C 209.742188 145.992188 208.226562 145.847656 206.796875 145.785156 C 208.492188 147.238281 210.851562 147.628906 213.042969 147.257812 C 211.058594 148.210938 208.765625 148.070312 206.722656 147.503906 C 208.15625 148.769531 210.332031 149.152344 212.21875 149.023438 C 213.789062 148.953125 215.105469 148.222656 215.957031 146.902344 C 216.054688 146.472656 215.253906 146.492188 214.980469 146.574219 C 214.691406 146.621094 214.40625 146.8125 214.121094 146.785156 C 214.429688 146.203125 215.140625 146.09375 215.742188 146.09375 C 217.480469 146.089844 219.316406 145.964844 220.953125 145.417969 C 215.992188 145.890625 210.792969 144.324219 207.121094 140.882812 C 206.425781 140.355469 210.289062 140.015625 210.640625 139.917969 C 210.941406 139.734375 210.277344 139.636719 210.15625 139.609375 C 206.9375 139.195312 203.695312 138.945312 200.449219 138.898438 C 197.382812 138.855469 194.316406 139 191.28125 139.472656 C 191.128906 139.488281 191.042969 139.402344 191.058594 139.261719 C 191.054688 136.539062 197.914062 135.375 200.078125 134.777344 C 195.433594 134.640625 190.867188 136.035156 186.640625 137.878906 C 185.542969 138.355469 185.667969 138.261719 184.710938 137.832031 C 180.789062 135.90625 176.542969 134.394531 172.128906 134.554688 C 174.410156 135.105469 176.839844 135.660156 178.6875 137.179688 C 178.890625 137.375 179.296875 137.828125 178.886719 137.992188 C 176.398438 138.101562 173.90625 137.5625 171.410156 137.570312 C 168.246094 137.5 165.070312 137.640625 161.941406 138.136719 C 161.8125 138.191406 159.6875 138.496094 160.105469 138.707031 C 162.8125 139.519531 161.816406 139.914062 160.503906 141.632812 C 159.574219 142.859375 158.8125 144.1875 158.164062 145.582031 C 157.832031 146.308594 157.953125 146.214844 157.199219 146.277344 C 151.339844 147.089844 145.121094 143.597656 143.234375 137.90625 C 139.800781 125.609375 148.046875 112.527344 155.738281 103.46875 C 156.140625 102.964844 156.773438 102.410156 156.566406 101.703125 C 154.085938 98.449219 139.644531 111.445312 138.160156 114.269531 C 124.898438 133.964844 129.75 154.09375 151.800781 163.75 C 142.144531 168.511719 135.34375 150.609375 122.691406 151.234375 C 119.207031 151.363281 113.746094 152.136719 112.054688 155.558594 C 112.105469 155.550781 112.171875 155.558594 112.203125 155.53125 C 112.386719 155.34375 113.503906 154.703125 113.695312 154.902344 C 110.175781 157.484375 107.640625 161.984375 107.6875 166.414062 C 107.78125 166.164062 107.894531 164.375 108.320312 164.738281 C 108.507812 165.910156 108.152344 167.175781 108.296875 168.3125 C 108.632812 168.007812 108.445312 166.574219 108.839844 166.4375 C 109.089844 167.824219 109.089844 169.28125 109.027344 170.695312 C 109.035156 170.792969 109.007812 170.972656 109.105469 171.019531 C 109.210938 171.023438 109.261719 170.710938 109.292969 170.621094 C 109.488281 169.648438 109.492188 168.59375 109.78125 167.660156 C 110.203125 169.917969 109.816406 172.417969 110.332031 174.71875 C 110.390625 175.171875 110.945312 177.300781 111.566406 176.332031 C 111.777344 175.300781 111.355469 174.199219 111.457031 173.164062 C 111.820312 173.636719 111.964844 176.382812 112.605469 176.46875 C 112.796875 176.300781 112.578125 175.964844 112.578125 175.742188 C 112.460938 175.152344 112.347656 174.554688 112.238281 173.964844 C 112.230469 173.921875 112.273438 173.871094 112.292969 173.824219 C 113.328125 176.644531 114.03125 179.742188 115.84375 182.238281 C 116.039062 182.417969 116.667969 183.480469 116.894531 183.0625 C 117.355469 182.28125 116.722656 180.632812 116.957031 179.777344 C 117.445312 180.515625 117.566406 181.480469 117.9375 182.289062 C 118.152344 182.832031 118.414062 183.359375 118.652344 183.890625 C 118.664062 183.910156 118.707031 183.914062 118.738281 183.929688 C 118.78125 183.859375 118.75 183.765625 118.734375 183.695312 C 118.402344 182.777344 118.292969 181.8125 118.085938 180.871094 C 118.066406 180.714844 118.011719 180.546875 118.085938 180.398438 C 119.078125 181.746094 119.285156 183.722656 120.527344 184.902344 C 120.296875 184.066406 119.746094 183.191406 119.6875 182.316406 C 120.667969 183.597656 121.28125 185.1875 122.53125 186.277344 C 123.738281 187.324219 125.09375 187.601562 125.886719 185.960938 C 126.058594 185.855469 126.089844 186.113281 126.167969 186.214844 C 126.613281 186.917969 127.050781 187.800781 127.894531 188.074219 C 128.101562 188.148438 128.578125 188.042969 128.441406 187.765625 C 128.324219 187.53125 126.996094 186.148438 127.585938 186.09375 C 128.5625 186.207031 129.640625 187.734375 130.613281 187.425781 C 130.496094 187.1875 130.210938 187.117188 130.023438 186.945312 C 129.839844 186.832031 129.359375 186.300781 129.9375 186.5625 C 133.378906 188.808594 145.644531 180.800781 143.03125 183.675781 C 141.738281 185.570312 143.636719 185.367188 144.953125 185.253906 C 146.117188 185.175781 146.480469 187.085938 146.839844 187.925781 C 138.511719 210.636719 129.808594 221.523438 105.433594 227.171875 Z M 175.832031 180.617188 C 175.699219 180.832031 175.46875 180.734375 175.25 180.757812 C 174.605469 180.671875 173.367188 180.621094 173.339844 179.726562 C 173.320312 178.691406 176.113281 179.910156 175.832031 180.617188 Z M 161.660156 173.054688 C 162.304688 171.921875 163.394531 171.148438 164.4375 170.410156 C 165.074219 170.273438 165.5625 174.789062 165.75 175.492188 C 165.785156 176.289062 166.472656 177.1875 166.078125 177.929688 C 165.582031 178.75 165.222656 179.613281 165 180.539062 C 164.796875 180.78125 164.628906 180.214844 164.53125 180.089844 C 163.886719 178.761719 163.582031 177.359375 163.550781 175.890625 C 163.546875 175.734375 163.65625 175.539062 163.457031 175.417969 C 162.804688 176.414062 162.96875 178.101562 163.011719 179.351562 C 160.949219 178.035156 160.535156 175.140625 161.660156 173.054688 Z M 134.441406 162.910156 C 133.113281 162.515625 131.527344 162.566406 129.898438 162.816406 C 129.574219 162.679688 130.207031 162.324219 130.324219 162.222656 C 130.875 161.898438 131.496094 161.792969 132.121094 161.757812 C 133.859375 161.617188 135.519531 162.195312 136.910156 163.246094 C 137.128906 163.449219 137.789062 163.933594 137.648438 164.253906 C 136.574219 163.820312 135.59375 163.171875 134.441406 162.910156 Z M 160.597656 152.542969 C 160.765625 152.929688 160.605469 153.394531 160.628906 153.8125 C 160.632812 153.8125 160.640625 153.8125 160.644531 153.8125 C 160.503906 155.214844 160.449219 156.652344 159.8125 157.9375 C 159.75 158.058594 159.640625 158.402344 159.898438 158.226562 C 160.570312 157.777344 161.246094 157.339844 161.90625 156.878906 C 162.269531 156.652344 162.519531 156.246094 162.9375 156.109375 C 162.457031 159.003906 158.871094 162.414062 155.972656 162.664062 C 155.898438 162.382812 156.53125 161.746094 156.675781 161.445312 C 158.5 158.929688 159.59375 156.007812 160.398438 153.035156 C 160.453125 152.863281 160.464844 152.675781 160.597656 152.542969 Z M 150.960938 161.625 C 121.796875 148.738281 129.714844 115.1875 154.492188 102.699219 C 142.773438 113.8125 130.75 146.457031 156.105469 147.832031 C 156.628906 147.8125 157.152344 147.789062 157.675781 147.773438 C 157.96875 147.761719 158.046875 147.804688 158.101562 148.085938 C 158.800781 151.324219 158.492188 154.644531 157.121094 157.667969 C 156.796875 158.398438 156.871094 158.457031 155.949219 158.273438 C 150.941406 157.167969 145.796875 154.695312 142.730469 150.492188 C 144.949219 152.492188 147.636719 154.390625 150.605469 154.910156 C 148.238281 153.425781 145.664062 151.992188 143.929688 149.726562 C 143.984375 149.726562 144.046875 149.703125 144.082031 149.726562 C 144.636719 150.132812 145.171875 150.5625 145.792969 150.863281 C 147.273438 151.554688 148.980469 152.296875 150.628906 152 C 146.0625 150.210938 143.65625 147.988281 141.988281 143.21875 C 143.21875 144.910156 144.503906 147.199219 146.550781 147.964844 C 134.011719 135.609375 142.292969 116.351562 152.09375 104.980469 C 152.347656 104.707031 153.101562 103.800781 152.140625 104.394531 C 146.203125 108.234375 140.546875 118.523438 138.6875 125.285156 C 138.671875 123.722656 139.527344 122.210938 139.8125 120.703125 C 137.484375 124.050781 136.523438 128.214844 135.660156 132.15625 C 135.605469 129.996094 136.011719 127.808594 136.417969 125.707031 C 134.632812 129.539062 133.945312 133.929688 134.117188 138.140625 C 133.648438 137.8125 133.34375 133.074219 132.886719 133.628906 C 130.335938 146.03125 140.835938 156.285156 151.125 161.242188 C 154.457031 162.648438 154.515625 163.292969 150.960938 161.625 Z M 150.960938 161.625 " fill-opacity="1" fill-rule="nonzero"/><path fill="#242424" d="M 217.277344 148.253906 C 216.429688 147.660156 215.242188 149.15625 213.929688 149.261719 C 211.292969 149.851562 208.574219 149.933594 205.90625 149.671875 C 207.035156 151.65625 208.984375 152.757812 211.039062 153.5625 C 207.058594 153.125 203.058594 152.179688 199.015625 152.339844 C 199.011719 152.640625 199.566406 152.945312 199.78125 153.140625 C 200.40625 153.671875 201.109375 154.148438 201.738281 154.648438 C 198.382812 154.121094 194.882812 153.976562 191.460938 154.019531 C 191.199219 154.039062 190.679688 153.957031 190.855469 154.375 C 191.648438 157.015625 193.449219 159.1875 195.597656 160.867188 C 195.910156 161.125 197.699219 162.488281 197.589844 161.445312 C 197.652344 160.535156 197.777344 160.683594 198.34375 160.953125 C 198.675781 161.058594 206.183594 164.914062 203.953125 163.441406 C 200.601562 161.289062 197.175781 159.128906 194.222656 156.476562 C 200.640625 157.890625 206.898438 160.511719 211.445312 165.390625 C 210.160156 161.84375 207.011719 158.996094 203.726562 157.171875 C 203.472656 157.074219 203.238281 156.832031 203.695312 156.824219 C 208.253906 156.84375 212.496094 159.863281 215.800781 162.285156 C 213.300781 158.28125 209.542969 156.183594 205.105469 155.003906 C 212.457031 154.851562 220.53125 158.667969 222.804688 166.09375 C 223.0625 166.652344 222.722656 167.234375 222.660156 167.804688 C 221.640625 172.511719 221.871094 177.371094 221.039062 182.097656 C 220.976562 182.375 220.722656 183.988281 221.140625 183.066406 C 221.894531 181.257812 222.695312 179.382812 224.019531 177.917969 C 225.230469 176.695312 224.898438 174.835938 225.394531 173.308594 C 225.421875 173.230469 225.300781 173.339844 225.273438 173.316406 C 225.226562 173.273438 225.167969 173.207031 225.167969 173.148438 C 225.105469 171.703125 225.695312 170.496094 226.585938 169.410156 C 226.511719 169.320312 226.414062 169.375 226.328125 169.414062 C 225.785156 169.695312 225.300781 170.050781 224.878906 170.492188 C 224.632812 170.707031 224.480469 171.070312 224.171875 171.179688 C 224.75 169.53125 225.453125 167.808594 226.347656 166.3125 C 226.957031 167.3125 227.539062 168.375 227.882812 169.515625 C 228.082031 170.28125 228.414062 170.992188 228.871094 171.644531 C 229.082031 172.023438 229.828125 172.945312 229.730469 173.320312 C 229.496094 173.097656 229.265625 172.875 229.042969 172.644531 C 228.953125 172.496094 227.542969 171.53125 227.964844 172.164062 C 229.609375 173.824219 229.386719 176.136719 229.882812 178.207031 C 230.304688 179.074219 230.507812 180.082031 230.304688 181.003906 C 229.867188 180.707031 229.882812 179.863281 229.160156 179.617188 C 228.28125 179.507812 229.585938 181.171875 229.574219 181.554688 C 227.25 181.222656 225.929688 183.46875 224.972656 185.238281 C 224.949219 185.261719 224.847656 185.3125 224.851562 185.226562 C 225.132812 181.738281 225.960938 178.265625 226.460938 174.816406 C 222.773438 180.824219 222.90625 183.507812 222.742188 190.445312 C 222.386719 190.28125 222.238281 189.832031 221.960938 189.5625 C 219.582031 187.140625 218.792969 184.898438 218.246094 181.613281 C 217.804688 182.617188 217.875 183.832031 217.683594 184.871094 C 217.457031 184.554688 217.503906 183.996094 217.382812 183.605469 C 217.046875 183.152344 217.273438 185.417969 217.304688 185.570312 C 217.222656 186.125 215.523438 183.90625 215.3125 183.875 C 217.632812 188.828125 221.117188 193.285156 224.273438 197.753906 C 224.347656 197.515625 224.140625 197.3125 224.066406 197.097656 C 223.277344 195.398438 222.359375 193.707031 221.640625 191.992188 C 225.308594 195.804688 226.050781 201.496094 229.328125 205.527344 C 230.226562 206.550781 231.03125 207.640625 231.371094 208.984375 C 231.703125 210.476562 236.019531 210.117188 237.792969 214.023438 C 239.808594 217.867188 239.113281 222.253906 238.675781 226.359375 C 239.117188 228.816406 239.628906 231.289062 239.371094 233.800781 C 239.203125 236.03125 237.367188 237.851562 235.101562 237.863281 C 233.273438 237.792969 233.320312 236.554688 232.308594 236.304688 C 226.640625 235.476562 220.902344 235.910156 215.21875 236.34375 C 213.3125 236.5 211.40625 236.699219 209.527344 237.078125 C 205.746094 237.59375 202.894531 241.402344 198.957031 238.824219 C 193.0625 234.480469 195.335938 226.421875 196.703125 220.417969 C 196.871094 219.355469 196.9375 218.1875 197.78125 217.410156 C 198.335938 216.929688 198.734375 216.230469 199.347656 215.839844 C 198.765625 217.886719 197.769531 220.007812 197.535156 222.152344 C 200.578125 217.253906 202.734375 211.296875 207.578125 207.832031 C 205.617188 208.234375 204.132812 209.765625 202.503906 210.816406 C 203.597656 208.769531 205.429688 207.03125 206.742188 205.179688 C 200.96875 209.195312 195.042969 215.117188 193.21875 222.132812 C 192.726562 227.488281 190.148438 231.242188 184.609375 228.167969 C 184.539062 228.289062 184.65625 228.4375 184.695312 228.554688 C 185.019531 229.183594 185.34375 229.808594 185.667969 230.433594 C 185.785156 230.722656 186.058594 230.972656 186.054688 231.292969 C 183.921875 229.488281 182.355469 226.941406 180.457031 224.910156 C 182.703125 228.855469 184.910156 233.257812 188.199219 236.464844 C 184.675781 235.316406 181.574219 232.65625 178.863281 230.386719 C 179.925781 232.746094 181.648438 234.894531 183.4375 236.78125 C 183.511719 236.882812 183.6875 236.980469 183.605469 237.117188 C 179.082031 234.242188 174.828125 229.273438 174.867188 223.660156 C 175.824219 223.988281 177.136719 226.800781 178.046875 227.636719 C 177.136719 224.890625 177.703125 221.890625 178.332031 219.125 C 178.621094 218.027344 180.167969 217.664062 180.835938 216.882812 C 180.710938 216.804688 180.566406 216.882812 180.4375 216.914062 C 179.34375 217.257812 178.265625 217.660156 177.125 217.832031 C 176.828125 217.878906 176.691406 217.78125 176.554688 217.53125 C 176.171875 216.820312 175.769531 216.121094 175.351562 215.429688 C 175.144531 215.175781 174.769531 214.394531 174.417969 214.863281 C 173.957031 215.480469 172.894531 217 172.410156 215.664062 C 170.882812 212.664062 171.746094 209.566406 170.515625 213.644531 C 170.410156 214.035156 170.285156 214.316406 170.144531 213.746094 C 170.027344 212.988281 169.8125 212.246094 169.835938 211.46875 C 169.863281 210.65625 168.976562 212.738281 168.894531 212.847656 C 167.953125 215.175781 168.199219 217.804688 168.332031 220.261719 C 168.746094 221.121094 169.300781 219.007812 169.527344 218.757812 C 169.738281 218.707031 169.71875 219.042969 169.773438 219.183594 C 170.804688 224.96875 173.171875 230.695312 177.457031 234.828125 C 177.683594 234.972656 177.539062 235.242188 177.269531 235.035156 C 174.15625 233.339844 171.652344 230.757812 169.351562 228.132812 C 169.941406 229.851562 171.234375 231.304688 172.039062 232.859375 C 167.234375 229.121094 165.285156 222.949219 164.28125 217.152344 C 163.871094 219.214844 164.175781 221.390625 164.371094 223.425781 C 163.488281 221.335938 162.488281 219 162.476562 216.679688 C 162.492188 216.402344 162.515625 216.117188 162.359375 215.871094 C 162.273438 215.90625 162.164062 215.925781 162.109375 215.988281 C 161.660156 216.503906 161.21875 217.027344 160.777344 217.554688 C 160.527344 217.847656 160.457031 218.171875 160.511719 218.566406 C 160.664062 219.683594 160.78125 220.808594 160.902344 221.929688 C 161.035156 223.136719 161.019531 223.15625 160.503906 224.246094 C 160.257812 225.007812 159.300781 226.28125 159.714844 227 C 160.644531 229.308594 162.117188 231.410156 163.058594 233.679688 C 161.761719 232.09375 160.640625 230.25 159.269531 228.71875 C 160.308594 231.171875 162.125 233.34375 163.140625 235.765625 C 161.796875 234.125 160.347656 232.414062 158.800781 230.976562 C 159.917969 233.730469 161.664062 236.28125 162.816406 238.992188 C 161.441406 237.695312 160.308594 235.9375 158.910156 234.65625 C 160.492188 237.617188 162.300781 240.582031 163.929688 243.5 C 162.722656 242.480469 161.945312 240.820312 160.640625 239.890625 C 161.203125 241.550781 162.46875 243.113281 163.351562 244.683594 C 163.910156 245.542969 164.554688 246.347656 165.160156 247.179688 C 165.265625 247.359375 165.503906 247.496094 165.445312 247.722656 C 165.113281 247.59375 161.6875 243.632812 162.503906 245.113281 C 165.628906 249.746094 168.601562 254.480469 171.980469 258.933594 C 174.359375 261.957031 177.925781 263.910156 181.671875 264.664062 C 181.90625 264.734375 182.351562 264.746094 182.300781 265.082031 C 182.273438 265.226562 182.15625 265.265625 182.023438 265.253906 C 178.71875 264.976562 175.664062 263.535156 172.863281 261.9375 C 174.398438 264.097656 176.949219 265.566406 179.296875 266.753906 C 179.386719 266.808594 179.546875 266.867188 179.511719 266.996094 C 174.300781 265.847656 169.667969 262.382812 165.492188 259.167969 C 169.078125 265.183594 175.03125 269.546875 180.59375 273.65625 C 167.5625 270.496094 161.636719 257.167969 155.753906 246.46875 C 154.8125 245.027344 152.957031 244.570312 152.070312 243.113281 C 151.199219 241.773438 150.472656 240.289062 149.667969 238.945312 C 149.882812 241.976562 151.058594 244.921875 152.046875 247.75 C 148.035156 241.691406 146.0625 234.015625 143.898438 227.09375 C 143.976562 235.652344 145.722656 244.269531 148.035156 252.464844 C 146.710938 250.445312 145.511719 248.210938 143.90625 246.390625 C 144.660156 250.121094 146.710938 253.589844 148.089844 257.152344 C 150.507812 261.574219 154.242188 265.4375 158.40625 268.265625 C 159.527344 269.4375 152.808594 265.546875 152.664062 265.851562 C 153.558594 267.289062 154.847656 268.511719 156.097656 269.652344 C 156.429688 269.972656 156.894531 270.246094 157.109375 270.652344 C 157.074219 270.660156 157.027344 270.691406 157.003906 270.675781 C 156.582031 270.4375 156.171875 270.183594 155.746094 269.953125 C 155.195312 269.652344 154.6875 269.289062 154.21875 268.871094 C 153.730469 268.417969 153.257812 267.953125 152.71875 267.558594 C 152.699219 267.542969 152.636719 267.546875 152.621094 267.5625 C 152.535156 267.882812 153.375 268.726562 153.574219 269.046875 C 153.949219 269.574219 154.523438 269.980469 154.804688 270.554688 C 151.855469 268.859375 149.398438 266.316406 147.289062 263.660156 C 147.957031 266.523438 151.660156 270.648438 154.054688 273.414062 C 160.933594 279.246094 173.898438 280.09375 182.71875 281.019531 C 183.351562 281.109375 183.699219 279.953125 184.082031 279.542969 C 184.691406 278.617188 185.296875 277.6875 185.902344 276.761719 C 186.144531 276.398438 186.25 275.996094 186.25 275.558594 C 185.933594 268.335938 186.320312 266.792969 190.511719 260.753906 C 196.863281 249.46875 209.878906 253.628906 215.050781 245.667969 C 215.242188 245.371094 215.175781 244.828125 215.554688 244.71875 C 215.785156 244.757812 216.046875 244.703125 216.222656 244.917969 C 216.257812 245.046875 216.214844 245.199219 216.203125 245.335938 C 212.4375 255.835938 189.414062 249 187.992188 276.296875 C 191.578125 271.308594 193.761719 265.324219 196.960938 260.148438 C 196.714844 261.8125 195.789062 263.417969 195.382812 265.042969 C 196.796875 262.867188 198.019531 260.472656 199.167969 258.121094 C 199.304688 257.824219 199.460938 257.527344 199.734375 257.347656 C 199.941406 257.257812 201.273438 256.285156 201.304688 256.570312 C 199.371094 264.433594 196.605469 272.125 197.351562 280.34375 C 197.382812 280.652344 197.78125 280.457031 197.972656 280.46875 C 198.773438 280.355469 199.570312 280.242188 200.371094 280.128906 C 200.730469 280.078125 201.089844 280.027344 201.445312 279.960938 C 201.726562 279.902344 201.765625 279.847656 201.808594 279.558594 C 201.941406 278.074219 202.085938 276.585938 202.21875 275.101562 C 202.804688 268.632812 203.230469 262.152344 203.667969 255.671875 C 203.6875 255.34375 203.808594 255.164062 204.128906 255.058594 C 206.835938 254.078125 209.597656 253.226562 212.226562 252.039062 C 219.667969 248.722656 217.335938 243.804688 218.902344 245.0625 C 223.453125 247.785156 231.195312 243.53125 232.933594 238.925781 C 235.320312 239.964844 238.441406 239.109375 239.886719 236.8125 C 241.578125 233.742188 240.789062 229.960938 240.121094 226.695312 C 240.796875 220.792969 241.480469 212.53125 235.152344 209.394531 C 234.597656 209.042969 233.035156 208.800781 232.945312 208.199219 C 232.246094 205.253906 228.066406 203.15625 228.628906 200.160156 C 228.859375 199.136719 228.972656 198.097656 228.96875 197.039062 C 228.996094 194.492188 228.792969 191.960938 228.617188 189.425781 C 228.617188 189.308594 228.726562 189.261719 228.828125 189.335938 C 229.53125 189.789062 230.175781 190.503906 231.019531 190.667969 C 231.71875 190.640625 231.003906 189.855469 230.875 189.550781 C 230.402344 188.796875 229.921875 188.050781 229.445312 187.300781 C 228.4375 185.902344 229.257812 186.09375 229.828125 184.863281 C 229.9375 184.640625 229.90625 184.347656 230.132812 184.179688 C 230.757812 184.726562 235.03125 187.609375 235.53125 187.078125 C 234.96875 186.832031 231.265625 184.769531 231.492188 184.308594 C 234.875 186.648438 238.765625 188.847656 242.851562 189.386719 C 241.953125 188.828125 240.761719 188.664062 239.9375 187.988281 C 241.613281 188.234375 243.289062 189.078125 245.054688 189.164062 C 245.589844 189.242188 248.074219 189.28125 247.511719 188.300781 C 247.136719 187.898438 246.371094 187.792969 246.109375 187.339844 C 247.660156 187.550781 249.320312 188.132812 250.925781 187.769531 C 251.3125 187.644531 252.371094 187.464844 252.386719 186.988281 C 252.347656 186.46875 250.148438 186.382812 249.839844 185.714844 C 252.582031 185.675781 254.804688 185.101562 256.574219 182.816406 C 256.546875 182.65625 256.398438 182.773438 256.300781 182.789062 C 254.914062 183.269531 253.488281 183.503906 252.019531 183.417969 C 251.597656 183.339844 250.457031 183.421875 250.230469 183.125 C 253.097656 182.996094 256.59375 182.84375 258.277344 180.089844 C 259.34375 178.703125 261.3125 178.429688 262.765625 177.667969 C 261.765625 177.59375 260.699219 178.078125 259.699219 178.050781 C 261.054688 177.191406 262.816406 176.886719 264.042969 175.835938 C 261.316406 176.367188 258.519531 176.425781 255.757812 176.683594 C 255.285156 176.769531 254.484375 176.683594 254.171875 177.074219 C 255.722656 177.269531 257.328125 177.105469 258.871094 177.15625 C 258.855469 177.324219 258.628906 177.34375 258.503906 177.402344 C 257.128906 177.808594 255.757812 178.207031 254.339844 178.414062 C 254.207031 178.4375 254.164062 178.523438 254.222656 178.625 C 255.21875 180.316406 256.691406 179.960938 253.835938 181.117188 C 252.214844 181.625 250.523438 181.804688 248.863281 182.132812 C 248.464844 182.183594 247.023438 182.96875 247.558594 183.402344 C 248.175781 183.914062 248.914062 184.207031 249.714844 184.261719 C 250.246094 184.324219 250.816406 184.300781 251.328125 184.441406 C 250.011719 184.828125 248.464844 184.546875 247.089844 184.457031 C 246.777344 184.367188 246.625 184.574219 246.457031 184.800781 C 246.238281 185.027344 246.296875 185.09375 246.507812 185.214844 C 246.660156 185.457031 249.808594 186.246094 248.429688 186.253906 C 247.585938 186.183594 246.742188 186.097656 245.898438 186.03125 C 242.203125 185.515625 241.160156 186.183594 245.117188 187.917969 C 245.152344 187.9375 245.160156 188.011719 245.179688 188.066406 C 241.304688 187.09375 237.339844 185.914062 233.839844 183.886719 C 233.730469 183.824219 233.695312 183.695312 233.84375 183.644531 C 234.707031 183.34375 234.882812 183.410156 235.648438 183.859375 C 237.101562 184.460938 238.703125 185.0625 240.238281 185.160156 C 239.78125 184.847656 235.472656 183.296875 236.257812 182.527344 C 236.558594 182.261719 236.859375 181.992188 237.15625 181.71875 C 237.269531 181.613281 237.34375 181.609375 237.449219 181.75 C 238.667969 183.15625 240.257812 184.371094 242.164062 184.566406 C 243.582031 184.660156 245.113281 184.972656 246.441406 184.332031 C 244.261719 182.660156 242.304688 180.597656 239.933594 179.195312 C 241.902344 179.335938 243.960938 179.574219 245.972656 179.703125 C 245.972656 179.695312 245.972656 179.683594 245.972656 179.675781 C 247.40625 179.730469 248.878906 180.019531 250.289062 179.941406 C 247.945312 177.285156 244.003906 176.796875 240.683594 176.453125 C 240.75 176.285156 240.917969 176.28125 241.078125 176.253906 C 243.496094 175.800781 245.949219 175.820312 248.328125 176.46875 C 249.867188 176.949219 251.453125 177.566406 252.664062 178.65625 C 252.773438 178.757812 252.890625 178.875 253.054688 178.847656 C 251.664062 177.253906 252.1875 177.320312 253.1875 175.816406 C 253.46875 175.382812 253.492188 175.265625 252.933594 175 C 249.535156 173.628906 245.867188 173.039062 242.226562 173.367188 C 242.234375 173.171875 242.644531 173.113281 242.796875 173.019531 C 247.003906 171.523438 251.382812 170.417969 255.816406 169.863281 C 257.25 169.753906 258.488281 168.945312 259.171875 167.683594 C 259.449219 166.972656 258.59375 166.59375 258.082031 166.335938 C 257.195312 165.882812 259.011719 164.695312 258.074219 164.128906 C 254.113281 161.320312 246.976562 161.140625 242.488281 162.714844 C 240.433594 163.433594 241.394531 165.007812 239.367188 164.585938 C 239.019531 164.574219 238.847656 164.703125 238.71875 165.019531 C 238.394531 165.976562 239.867188 166.371094 240.515625 166.6875 C 241.3125 166.980469 242.140625 167.15625 242.988281 167.21875 C 243.46875 167.296875 244.027344 167.199219 244.464844 167.375 C 243.230469 167.933594 238.023438 168.292969 237.777344 166.414062 C 237.691406 166.011719 236.960938 167.421875 236.839844 167.53125 C 236.664062 167.816406 236.679688 167.867188 236.914062 168.105469 C 238.558594 169.675781 240.992188 169.765625 243.03125 170.328125 C 240.804688 170.921875 238.179688 170.671875 236.136719 169.503906 C 235.25 169.046875 235.359375 168.792969 235.429688 167.875 C 235.035156 168.246094 234.816406 168.816406 234.484375 169.253906 C 234.582031 170.882812 237.1875 171.925781 238.417969 172.753906 C 238.46875 172.792969 238.394531 172.871094 238.359375 172.871094 C 237.4375 172.667969 236.558594 172.277344 235.675781 171.960938 C 234.457031 171.441406 233.457031 170.992188 232.828125 169.8125 C 232.328125 171.265625 233.441406 170.914062 230.695312 170.8125 C 230.003906 170.992188 228.980469 167.851562 228.597656 167.21875 C 228.207031 166.316406 229.5625 167.816406 231.457031 166.617188 C 234.527344 165.433594 234.988281 166.503906 237.761719 163.78125 C 241.292969 161.230469 245.699219 160.628906 249.953125 160.5 C 250.714844 160.398438 251.402344 160.742188 252.140625 160.875 C 254.710938 161.324219 257.53125 161.285156 259.9375 162.214844 C 259.472656 162.261719 258.972656 162.136719 258.496094 162.136719 C 258.117188 162.089844 257.867188 162.664062 258.140625 162.917969 C 258.328125 163.101562 258.527344 163.265625 258.726562 163.433594 C 260.859375 164.886719 263.691406 168.09375 260.351562 169.933594 C 259.871094 170.308594 256.253906 171.449219 256.75 172.019531 C 257.511719 173.105469 258.886719 173.132812 260.039062 173.425781 C 259.375 173.882812 255.628906 173.3125 255.667969 174.015625 C 255.699219 174.167969 255.691406 174.242188 255.515625 174.226562 C 254.917969 174.167969 254.3125 174.121094 253.714844 174.050781 C 253.289062 174.042969 252.851562 173.8125 252.4375 173.929688 C 253.953125 174.753906 255.734375 175.382812 257.492188 175.28125 C 259.542969 175.140625 262.40625 174.914062 264.128906 173.800781 C 261.769531 174.28125 259.304688 175 256.863281 174.414062 C 256.988281 174.398438 257.121094 174.351562 257.234375 174.375 C 259.613281 174.738281 264.175781 172.949219 265.160156 170.75 C 263.5 171.648438 261.59375 172.460938 259.648438 172.136719 C 259.429688 171.945312 259.808594 171.933594 259.933594 171.90625 C 263.898438 171.210938 264.878906 165.828125 261.476562 163.746094 C 261.511719 163.734375 261.554688 163.707031 261.582031 163.714844 C 262.007812 163.847656 262.421875 164.007812 262.875 164.003906 C 263.585938 164.113281 263.792969 163.75 263.296875 163.203125 C 260.738281 160.320312 256.628906 160.304688 253.109375 159.902344 C 253.925781 159.214844 255.855469 159.476562 256.890625 159.613281 C 254.480469 158.121094 251.023438 158.929688 248.328125 159.09375 C 243.691406 159.324219 239.1875 160.425781 235.640625 163.574219 C 233.917969 165.167969 231.558594 164.503906 229.464844 164.976562 C 228.359375 165.152344 228.359375 165.0625 227.835938 164.175781 C 244.558594 155.765625 250.234375 134.433594 240.308594 118.355469 C 238.261719 115.488281 235.097656 110.039062 231.21875 110.058594 C 230.359375 110.140625 229.886719 110.882812 230.132812 111.714844 C 230.421875 112.539062 231.082031 113.160156 231.523438 113.902344 C 234.199219 118.441406 235.738281 123.738281 236.078125 128.988281 C 236.378906 138.832031 228.996094 153.539062 217.277344 148.253906 Z M 185.773438 258.496094 C 182.285156 257.589844 179.199219 255.582031 176.398438 253.460938 C 178.238281 256.179688 181.082031 258.148438 182.878906 260.910156 C 182.945312 261.019531 183.0625 261.15625 183.007812 261.285156 C 177.351562 260.253906 172.75 253.640625 172.441406 248.140625 C 176.902344 251.535156 181.660156 254.824219 185.886719 258.480469 C 185.851562 258.484375 185.808594 258.507812 185.773438 258.496094 Z M 202.175781 247.3125 C 199.351562 248.195312 196.410156 248.476562 193.492188 248.84375 C 193.066406 248.902344 192.691406 248.835938 192.324219 248.648438 C 189.148438 247.066406 186.050781 245.335938 182.945312 243.617188 C 182.410156 243.316406 181.886719 243.277344 181.316406 243.414062 C 180.308594 243.671875 179.28125 243.867188 178.285156 244.171875 C 178.296875 244.40625 178.511719 244.433594 178.65625 244.511719 C 179.40625 244.90625 180.167969 245.277344 180.914062 245.671875 C 182.800781 246.71875 184.699219 247.734375 186.648438 248.660156 C 186.832031 248.773438 187.15625 248.832031 187.179688 249.078125 C 186.667969 249.476562 183.972656 248.730469 183.289062 248.476562 C 183.191406 248.429688 182.902344 248.414062 183.035156 248.585938 C 186.484375 251.4375 190.691406 253.214844 194.679688 255.140625 C 189.539062 255.007812 184.660156 252.082031 180.457031 249.355469 C 181.957031 251.230469 183.835938 252.742188 185.550781 254.410156 C 191.082031 260.546875 179.800781 251.265625 178.851562 249.992188 C 177.75 248.921875 176.71875 247.789062 175.660156 246.679688 C 175.417969 246.425781 175.183594 246.125 175.457031 245.789062 C 175.824219 245.238281 176.21875 244.554688 175.644531 243.992188 C 173.617188 241.742188 171.75 239.359375 169.824219 237.027344 C 168.359375 235.34375 176.144531 241.617188 176.546875 241.699219 C 176.785156 241.882812 176.96875 241.84375 177.203125 241.726562 C 178.121094 241.265625 179.046875 240.816406 179.96875 240.363281 C 180.359375 240.203125 180.707031 239.84375 181.105469 240.203125 C 185.769531 242.726562 190.730469 245.273438 196.121094 245.550781 C 198.527344 245.875 193.027344 245.796875 192.683594 245.625 C 191.652344 245.554688 190.691406 245.152344 189.695312 244.984375 C 195.441406 248.070312 196.910156 246.941406 202.980469 246.910156 C 202.828125 247.269531 202.457031 247.230469 202.175781 247.3125 Z M 222.003906 243.929688 C 221.722656 243.921875 221.800781 243.707031 221.9375 243.558594 C 223.113281 242.230469 223.4375 239.46875 222.433594 238.042969 C 222.222656 238.234375 222.1875 238.53125 222.085938 238.785156 C 220.417969 245.8125 210.746094 243.722656 206.828125 239.96875 C 207.246094 239.488281 208.890625 240.75 209.402344 240.972656 C 211.515625 242.191406 214.066406 242.667969 216.445312 242.539062 C 216.28125 242.375 216.015625 242.332031 215.796875 242.265625 C 214.242188 241.953125 212.984375 241.089844 211.785156 240.117188 C 211.703125 240.027344 211.535156 239.9375 211.597656 239.796875 C 213.335938 240.75 215.566406 241.640625 217.5 241.160156 C 215.945312 240.671875 214.039062 240.1875 212.960938 238.921875 C 213.867188 239.226562 214.816406 239.554688 215.820312 239.519531 C 216.558594 239.511719 218.570312 239.605469 219.015625 239.015625 C 217.316406 238.960938 215.484375 238.902344 213.964844 238.113281 C 217.980469 237.484375 222.285156 237.46875 226.382812 237.238281 C 225.984375 237.886719 224.484375 238.066406 223.789062 238.347656 C 223.28125 238.785156 224.734375 238.617188 224.945312 238.683594 C 225.980469 238.636719 227 238.527344 227.957031 238.089844 C 228.882812 237.773438 227.652344 238.777344 227.460938 238.921875 C 226.730469 239.542969 225.765625 239.769531 224.972656 240.25 C 227.292969 240.359375 229.613281 239.394531 231.316406 237.8125 C 231.402344 237.699219 231.683594 237.519531 231.703125 237.765625 C 230.628906 241.863281 226.03125 244.175781 222.003906 243.929688 Z M 227.515625 188.347656 C 227.441406 189.097656 226.769531 189.171875 226.144531 189.214844 C 225.992188 189.230469 225.9375 189.320312 225.949219 189.460938 C 226.039062 190.457031 226.039062 191.472656 226.230469 192.457031 C 226.601562 192.121094 226.527344 191.484375 226.929688 191.179688 C 227.207031 191.398438 227.199219 191.78125 227.253906 192.101562 C 227.421875 194.273438 227.636719 196.082031 227.363281 198.011719 C 227.339844 198.082031 227.210938 198.097656 227.171875 198.035156 C 226.648438 196.925781 226.199219 195.773438 225.558594 194.722656 C 225.136719 193.984375 224.921875 193.199219 224.859375 192.367188 C 224.890625 191.152344 224.175781 188.328125 225.679688 187.867188 C 226.054688 187.832031 227.679688 187.734375 227.515625 188.347656 Z M 228.917969 184.078125 C 228.527344 184.335938 228.097656 184.492188 227.65625 184.558594 C 227.042969 184.414062 228.140625 183.621094 228.355469 183.5 C 228.710938 183.199219 229.378906 183.769531 228.917969 184.078125 Z M 214.875 155.320312 C 214.304688 155.175781 214.851562 153.839844 215.421875 153.789062 C 215.574219 153.738281 215.550781 153.609375 215.425781 153.550781 C 214.796875 153.234375 214.15625 152.929688 213.53125 152.609375 C 213.390625 152.535156 213.179688 152.519531 213.152344 152.296875 C 215.90625 152.539062 219.175781 152.695312 220.292969 155.539062 C 219.503906 155.265625 218.871094 154.226562 217.988281 154.300781 C 218.925781 154.964844 219.863281 155.695312 220.726562 156.460938 C 221.121094 156.847656 220.945312 157.21875 220.445312 156.898438 C 219.550781 156.574219 218.710938 155.996094 217.785156 155.8125 C 218.902344 157.070312 220.589844 158.007812 221.675781 159.273438 C 219.460938 157.914062 217.4375 156.058594 214.875 155.320312 Z M 231.757812 111.695312 C 231.667969 111.15625 232.976562 111.957031 233.109375 112.058594 C 237.511719 115.660156 240.683594 120.777344 242.257812 126.222656 C 247.078125 139.882812 240.375 157.230469 226.683594 162.585938 C 236.023438 157.503906 243.910156 147.4375 243.40625 136.195312 C 242.664062 137.191406 242.855469 138.726562 242.222656 139.808594 C 242.613281 136.007812 242.429688 131.921875 241.089844 128.324219 C 241.164062 129.453125 241.457031 130.597656 241.382812 131.742188 C 241.359375 131.84375 241.449219 131.984375 241.289062 132.046875 C 240.292969 127.113281 237.40625 114.582031 232.757812 112.351562 C 238.992188 122.433594 241.429688 136.886719 234.066406 147.007812 C 234.347656 147.027344 235.007812 145.996094 235.292969 145.765625 C 236.371094 144.683594 236.980469 143.320312 237.734375 142.023438 C 236.886719 145.996094 234.246094 149.46875 230.574219 151.246094 C 230.414062 151.355469 230.1875 151.398438 230.128906 151.609375 C 232.488281 151.65625 234.453125 149.972656 236.214844 148.632812 C 236.242188 148.804688 236.082031 148.960938 235.996094 149.097656 C 234.558594 150.867188 233.046875 152.570312 231.214844 153.9375 C 231.363281 154.054688 231.476562 153.925781 231.59375 153.875 C 233.015625 153.292969 234.203125 152.359375 235.355469 151.375 C 236.03125 150.796875 236.65625 150.167969 237.191406 149.457031 C 237.230469 149.410156 237.304688 149.394531 237.363281 149.363281 C 235.027344 154.148438 230.09375 157.109375 225.289062 159.03125 C 225.046875 159.128906 224.996094 159.113281 224.871094 158.855469 C 223.613281 156.253906 222.277344 153.433594 219.894531 151.675781 C 219.777344 151.648438 219.539062 151.367188 219.695312 151.347656 C 239.019531 150.878906 241.378906 124.265625 231.757812 111.695312 Z M 231.757812 111.695312 " fill-opacity="1" fill-rule="nonzero"/><path fill="#242424" d="M 123.40625 272.988281 C 68.074219 217.78125 77.847656 125.4375 153.753906 99.929688 C 155.402344 99.375 156.785156 98.929688 158.402344 98.886719 C 159.066406 98.742188 158.816406 99.457031 158.886719 99.859375 C 158.992188 100.0625 159.402344 99.839844 159.59375 99.824219 C 198.5 89.273438 241.777344 105.269531 265.671875 137.441406 C 250.402344 108.238281 216.617188 92.675781 184.507812 92.621094 C 184.507812 92.632812 184.503906 92.644531 184.503906 92.65625 C 88.832031 90.675781 50.921875 216.320312 123.878906 273.554688 C 123.832031 273.304688 123.5625 273.175781 123.40625 272.988281 Z M 123.40625 272.988281 " fill-opacity="1" fill-rule="nonzero"/><path fill="#242424" d="M 290.035156 182.71875 C 289.441406 168.707031 286.492188 154.757812 281.527344 141.667969 C 309.082031 233.679688 233.652344 314.195312 140.464844 281.992188 C 214.402344 315.242188 292.878906 264.371094 290.035156 182.71875 Z M 290.035156 182.71875 " fill-opacity="1" fill-rule="nonzero"/><path fill="#242424" d="M 155.894531 280.300781 C 218.699219 300.636719 278.832031 258.378906 282.179688 192.6875 C 280.007812 197.34375 279.972656 202.566406 278.753906 207.496094 C 268.609375 267.847656 195.261719 303.1875 142.226562 272.023438 C 97.730469 247.941406 81.988281 185.550781 107.402344 142.363281 C 72.355469 189.082031 100.347656 264.40625 155.894531 280.300781 Z M 155.894531 280.300781 " fill-opacity="1" fill-rule="nonzero"/><path fill="#242424" d="M 255.128906 114.65625 C 269.472656 128.8125 274.6875 149.671875 276.949219 169.105469 C 271.328125 149.5625 260.183594 131.191406 243.496094 119.199219 C 241.429688 117.8125 240.917969 117.148438 242.816406 119.78125 C 266.632812 142.734375 277.03125 166.789062 276.546875 200.125 C 290.136719 170.558594 279.113281 133.523438 254.09375 113.59375 C 254.351562 114 254.816406 114.28125 255.128906 114.65625 Z M 255.128906 114.65625 " fill-opacity="1" fill-rule="nonzero"/><path fill="#242424" d="M 211.417969 211.339844 C 208.480469 212.453125 206.019531 214.707031 204.9375 217.667969 C 205.226562 217.738281 207.5625 216.660156 207.28125 217.269531 C 206.109375 220.019531 206.421875 223.601562 208.214844 226 C 206.6875 225.597656 205.914062 223.769531 205.492188 222.332031 C 205.246094 224.53125 206.867188 226.328125 208.691406 227.308594 C 209.015625 227.496094 209.410156 227.574219 209.636719 227.914062 C 208.203125 227.902344 206.730469 227.078125 206.066406 225.769531 C 206.003906 225.691406 205.804688 225.140625 205.722656 225.316406 C 205.886719 226.804688 206.851562 227.96875 208.28125 228.460938 C 208.621094 228.625 209.257812 228.542969 209.101562 229.09375 C 208.675781 232.585938 206.324219 233.070312 203.285156 232.613281 C 205.324219 233.324219 208.125 233.824219 209.714844 231.980469 C 209.28125 234.523438 203.738281 236.367188 201.320312 236.652344 C 197.574219 237.144531 196.253906 232.46875 196.601562 234 C 199.84375 241.023438 202.351562 238.574219 207.90625 236.347656 C 216.207031 234.78125 224.71875 234.9375 233.113281 235.433594 C 233.613281 235.464844 234.042969 235.570312 234.4375 235.914062 C 235.421875 236.820312 236.9375 236.195312 237.660156 235.242188 C 239.949219 232.214844 238.0625 228.421875 238.109375 225.078125 C 238.410156 223.40625 238.375 221.703125 238.558594 220.019531 C 238.488281 216.210938 237.179688 210.699219 232.179688 212.320312 C 231.855469 212.378906 231.328125 212.78125 231.0625 212.433594 C 229.71875 211.117188 227.882812 210.355469 226.164062 209.628906 C 225.382812 209.304688 223.378906 210.253906 222.453125 210.453125 C 221.078125 210.914062 219.699219 211.382812 218.410156 212.054688 C 218 212.269531 217.636719 212.289062 217.203125 212.121094 C 215.382812 211.539062 213.3125 210.601562 211.417969 211.339844 Z M 213.542969 226.761719 C 216.527344 226.128906 221.644531 223.269531 218.6875 219.800781 C 217.226562 218.359375 215 217.839844 213.785156 216.125 C 213.472656 215.664062 213.296875 215.15625 213.292969 214.59375 C 213.246094 213.664062 214.367188 213.898438 214.972656 213.960938 C 216.480469 214.222656 217.976562 214.554688 219.507812 214.683594 C 220.054688 214.738281 220.589844 214.625 221.105469 214.433594 C 223.707031 213.265625 225.332031 213.234375 227.992188 214.246094 C 229.347656 214.738281 230.707031 213.910156 232.058594 213.730469 C 233.660156 213.222656 235.597656 213.757812 235.679688 215.691406 C 235.691406 216.769531 234.707031 217.472656 234.164062 218.308594 C 232.71875 220.21875 232.183594 222.988281 233.480469 225.117188 C 233.824219 225.875 234.355469 225.417969 234.511719 225.921875 C 235.128906 228.121094 237.074219 230.273438 235.210938 232.40625 C 235.066406 232.601562 234.878906 232.601562 234.671875 232.582031 C 233.226562 232.457031 231.777344 232.328125 230.332031 232.230469 C 223.75 231.902344 231.78125 231.675781 233.792969 231.667969 C 233.835938 231.597656 233.746094 231.511719 233.683594 231.507812 C 232.0625 231.675781 230.535156 230.9375 228.976562 230.601562 C 227.761719 230.101562 231.027344 230.597656 231.226562 230.683594 C 231.71875 230.746094 232.203125 230.988281 232.695312 230.949219 C 231.414062 229.972656 229.566406 229.515625 228.523438 228.296875 C 228.679688 228.121094 229.683594 228.421875 229.652344 228.121094 C 229.527344 227.878906 227.554688 227.726562 227.980469 227.460938 C 228.230469 227.335938 228.476562 227.371094 228.402344 227.027344 C 228.277344 225.238281 228.164062 223.449219 228.046875 221.65625 C 228.074219 221.550781 227.984375 221.375 227.886719 221.527344 C 227.589844 222.539062 226.558594 223.863281 227.039062 224.890625 C 227.136719 225.078125 227.125 225.242188 226.992188 225.390625 C 226.113281 226.300781 225.761719 227.15625 224.355469 227.152344 C 224.464844 227.421875 225.550781 227.660156 225.144531 227.941406 C 223.941406 228.761719 222.582031 229.277344 221.261719 229.863281 C 222.152344 229.9375 223.070312 229.886719 223.96875 229.917969 C 224.136719 229.957031 224.484375 229.839844 224.558594 230.011719 C 223.433594 230.464844 222.101562 230.410156 220.894531 230.617188 C 220.332031 230.683594 219.765625 230.703125 219.207031 230.582031 C 219.039062 230.566406 218.851562 230.5 218.691406 230.574219 C 219.46875 231.066406 220.464844 231.105469 221.359375 231.230469 C 221.78125 231.332031 222.488281 231.21875 222.804688 231.488281 C 221.074219 231.996094 219.050781 231.878906 217.222656 232.171875 C 216.324219 232.246094 215.425781 232.464844 214.523438 232.464844 C 214.335938 232.378906 214.480469 232.136719 214.507812 231.992188 C 215.144531 230.253906 213.542969 229 213.140625 227.445312 C 213.023438 226.957031 213.046875 226.914062 213.542969 226.761719 Z M 213.542969 226.761719 " fill-opacity="1" fill-rule="nonzero"/><path fill="#242424" d="M 181.335938 191.085938 C 181.804688 191.113281 182.257812 190.828125 182.726562 190.78125 C 183.597656 190.628906 184.480469 190.523438 185.355469 190.378906 C 186.152344 190.210938 186.859375 190.457031 187.527344 190.886719 C 193.460938 194.378906 200.394531 197.121094 203.9375 203.390625 C 203.40625 201.203125 202.011719 199.191406 201.03125 197.261719 C 201.082031 197.230469 201.140625 197.289062 201.179688 197.316406 C 201.859375 198.085938 202.570312 198.835938 203.210938 199.636719 C 203.839844 200.363281 204.285156 201.257812 204.929688 201.960938 C 203.894531 198.917969 202.3125 195.804688 199.917969 193.546875 C 199.742188 193.355469 199.734375 193.304688 199.871094 193.074219 C 200.183594 192.554688 200.503906 192.039062 200.820312 191.523438 C 200.910156 191.378906 200.980469 191.363281 201.105469 191.464844 C 203.894531 193.988281 206.226562 196.949219 208.292969 200.039062 C 208.191406 199.296875 207.773438 198.5625 207.550781 197.828125 C 205.316406 191.984375 201.128906 186.628906 195.476562 183.835938 C 195.578125 185.097656 196.3125 186.382812 196.476562 187.652344 C 192.269531 179.871094 186.324219 170.996094 176.902344 169.542969 C 185.195312 173.71875 191.503906 181.785156 195.476562 190.007812 C 193.367188 187.414062 190.898438 185.082031 188.5625 182.671875 C 186.914062 181 187.578125 182.054688 188.261719 183.277344 C 189.28125 185.082031 190.65625 186.757812 191.703125 188.496094 C 191.378906 188.511719 190.902344 187.925781 190.554688 187.792969 C 189.683594 187.363281 188.6875 186.890625 187.75 186.777344 C 188.359375 187.4375 189.242188 188.011719 189.4375 188.980469 C 189.246094 189.015625 189.042969 188.703125 188.878906 188.605469 C 188.125 188.097656 187.179688 187.683594 186.277344 187.835938 C 184.347656 188.417969 182.136719 189.027344 181.335938 191.085938 Z M 181.335938 191.085938 " fill-opacity="1" fill-rule="nonzero"/><path fill="#242424" d="M 228.316406 109.847656 C 206.613281 99.644531 178.734375 95.460938 156.386719 104.746094 C 156.371094 104.777344 156.382812 104.832031 156.402344 104.855469 C 180.058594 98.15625 206.339844 100.519531 228.300781 111.71875 C 228.433594 111.78125 228.566406 111.699219 228.535156 111.5625 C 228.296875 110.992188 228.972656 110.082031 228.316406 109.847656 Z M 228.316406 109.847656 " fill-opacity="1" fill-rule="nonzero"/><path fill="#242424" d="M 176.46875 165.148438 C 178.164062 166.121094 179.871094 167.070312 181.542969 168.085938 C 182.101562 168.351562 182.105469 168.953125 182.238281 169.484375 C 182.414062 170.585938 183.507812 170.96875 184.375 171.441406 C 187.945312 173.175781 190.859375 175.832031 193.832031 178.335938 C 192.894531 176.714844 191.796875 175.144531 190.765625 173.566406 C 188.90625 171.1875 188.367188 168.09375 186.40625 165.785156 C 183.5 162.222656 179.066406 159.363281 174.457031 159.015625 C 179.171875 160.820312 184.230469 164.929688 186.359375 169.207031 C 183.117188 167.6875 179.761719 166.019531 176.386719 164.964844 C 176.351562 165.054688 176.390625 165.109375 176.46875 165.148438 Z M 176.46875 165.148438 " fill-opacity="1" fill-rule="nonzero"/><path fill="#242424" d="M 202.527344 206.585938 C 202.660156 206.425781 203.253906 205.953125 202.839844 205.832031 C 201.402344 206.519531 199.914062 207.191406 198.328125 207.4375 C 199.113281 206.582031 200.296875 206.050781 201.046875 205.132812 C 200.875 205.011719 200.707031 205.109375 200.546875 205.15625 C 199.007812 205.640625 197.433594 205.972656 195.859375 206.328125 C 195.710938 206.363281 195.5 206.53125 195.417969 206.375 C 195.304688 206.167969 195.582031 206.09375 195.714844 206.007812 C 197.152344 205.007812 198.730469 204.109375 200.175781 203.179688 C 197.429688 203.734375 194.792969 204.988281 192.160156 205.972656 C 190.125 206.804688 188.964844 207.210938 188.296875 209.496094 C 188.195312 209.84375 188.480469 209.757812 188.652344 209.597656 C 189.601562 208.882812 190.84375 208.984375 191.960938 208.8125 C 191.960938 208.816406 191.960938 208.824219 191.960938 208.832031 C 193.519531 208.691406 191.785156 209.617188 191.808594 210.292969 C 191.867188 210.402344 192 210.367188 192.082031 210.28125 C 193.058594 209.554688 194.246094 209.039062 195.441406 208.9375 C 195.421875 209.003906 195.421875 209.097656 195.378906 209.136719 C 194.757812 209.695312 194.269531 210.363281 193.757812 211.011719 C 193.460938 211.453125 192.980469 211.882812 192.800781 212.371094 C 192.882812 212.472656 192.929688 212.34375 192.976562 212.308594 C 194.417969 211.023438 196.226562 210.410156 197.992188 209.714844 C 199.71875 208.988281 201.308594 208.054688 202.527344 206.585938 Z M 202.527344 206.585938 " fill-opacity="1" fill-rule="nonzero"/><path fill="#242424" d="M 214.949219 209.023438 C 219.769531 206.980469 225.3125 207.238281 230.285156 208.671875 C 227.898438 204.464844 224.675781 200.6875 221.519531 197.03125 C 222.273438 198.933594 223.863281 200.707031 224.09375 202.882812 C 224.078125 203.15625 224.320312 203.71875 223.929688 203.777344 C 221.15625 203.953125 218.328125 204.796875 216.085938 206.433594 C 217.765625 205.933594 219.527344 205.53125 221.328125 205.574219 C 221.675781 205.613281 222.433594 205.480469 222.65625 205.730469 C 222.609375 205.761719 222.566406 205.796875 222.507812 205.796875 C 219.75 206.214844 217.074219 207.207031 214.949219 209.023438 Z M 214.949219 209.023438 " fill-opacity="1" fill-rule="nonzero"/><path fill="#242424" d="M 201.449219 180.066406 C 201.535156 180.125 201.714844 180.421875 201.792969 180.269531 C 201.484375 179.558594 201.042969 178.894531 200.6875 178.199219 C 199.042969 175.289062 197.125 172.527344 194.964844 169.976562 C 194.679688 169.652344 194.367188 169.457031 193.941406 169.421875 C 191.570312 169.164062 189.554688 167.972656 188.257812 165.976562 C 190.421875 171.832031 194.378906 174.015625 198.382812 178.234375 C 197.925781 177.101562 197.007812 176.15625 196.445312 175.074219 C 198.15625 176.535156 199.902344 178.363281 201.449219 180.066406 Z M 201.449219 180.066406 " fill-opacity="1" fill-rule="nonzero"/><path fill="#242424" d="M 175.5 198.257812 C 175.542969 198.136719 175.40625 198.113281 175.339844 198.15625 C 172.5625 200.800781 170.164062 204.003906 169.390625 207.84375 C 169.347656 208.058594 169.378906 208.101562 169.59375 208.054688 C 173.84375 207.207031 177.609375 204.992188 181.394531 202.988281 C 181.289062 202.917969 181.257812 202.871094 181.234375 202.878906 C 179.15625 203.453125 177.125 204.179688 175.066406 204.8125 C 174.941406 204.832031 174.609375 205.007812 174.65625 204.773438 C 176 203.445312 177.464844 202.222656 179.050781 201.183594 C 179.160156 201.078125 179.421875 200.992188 179.394531 200.820312 C 177.503906 201.214844 175.617188 202.617188 173.667969 202.835938 C 173.75 202.363281 173.855469 201.890625 174.054688 201.453125 C 174.53125 200.382812 175.015625 199.320312 175.5 198.257812 Z M 175.5 198.257812 " fill-opacity="1" fill-rule="nonzero"/><path fill="#242424" d="M 192.683594 215.117188 C 188.132812 218.5625 190.191406 220.800781 188.09375 213.828125 C 188.265625 218.027344 189.65625 222.210938 190.117188 226.417969 C 190.132812 227.171875 190.753906 226.296875 190.894531 226.046875 C 191.605469 224.789062 191.609375 223.285156 191.769531 221.882812 C 192.257812 218.78125 194.167969 215.953125 195.589844 213.238281 C 195.414062 213.15625 195.09375 213.585938 194.9375 213.691406 C 193.445312 215.082031 192.242188 216.746094 190.882812 218.242188 C 190.800781 218.0625 190.972656 217.863281 191.039062 217.695312 C 191.515625 216.792969 192.167969 215.976562 192.683594 215.117188 Z M 192.683594 215.117188 " fill-opacity="1" fill-rule="nonzero"/><path fill="#242424" d="M 195.152344 279.84375 C 194.9375 276.695312 195.027344 273.445312 194.503906 270.34375 C 193.820312 273.925781 192.5625 277.367188 191.410156 280.820312 C 191.339844 281.027344 191.378906 281.085938 191.582031 281.070312 C 192.546875 280.996094 193.511719 280.9375 194.472656 280.84375 C 195.464844 280.816406 195.152344 280.609375 195.175781 279.84375 C 195.167969 279.84375 195.160156 279.84375 195.152344 279.84375 Z M 195.152344 279.84375 " fill-opacity="1" fill-rule="nonzero"/><path fill="#242424" d="M 184.46875 210.503906 C 183.941406 211.082031 183.121094 211.324219 182.554688 211.820312 C 183.832031 211.503906 185.765625 210.78125 186.191406 209.382812 C 186.484375 208.515625 186.429688 207.585938 186.5 206.683594 C 186.527344 204.980469 186.925781 203.191406 186.746094 201.496094 C 186.054688 204.515625 185.660156 205.886719 182.460938 206.921875 C 182.15625 207.3125 183.4375 206.875 183.585938 206.867188 C 184.40625 206.582031 184.71875 206.652344 183.96875 207.367188 C 183.03125 208.160156 181.980469 208.738281 180.769531 208.992188 C 180.496094 209.027344 180.035156 209.269531 180.621094 209.273438 C 182.332031 209.113281 183.761719 208.421875 185.1875 207.597656 C 185.234375 207.90625 184.21875 208.496094 184.003906 208.804688 C 183.25 209.605469 182.421875 210.300781 181.375 210.691406 C 181.273438 210.714844 181.226562 210.800781 181.179688 210.886719 C 181.335938 211.007812 181.496094 210.96875 181.667969 210.902344 C 182.773438 210.546875 183.875 210.164062 184.988281 209.835938 C 184.941406 210.152344 184.660156 210.296875 184.46875 210.503906 Z M 184.46875 210.503906 " fill-opacity="1" fill-rule="nonzero"/><path fill="#242424" d="M 186.007812 212.976562 C 185.625 212.722656 185.851562 214.914062 185.792969 215.363281 C 185.96875 218.546875 186.402344 222.050781 187.195312 225.191406 C 188.890625 229.691406 185.851562 213.40625 186.007812 212.976562 Z M 186.007812 212.976562 " fill-opacity="1" fill-rule="nonzero"/><path fill="#242424" d="M 137.957031 112.84375 C 132.433594 115.242188 126.058594 120.183594 121.804688 124.722656 C 121.863281 124.671875 121.925781 124.621094 121.984375 124.566406 C 126.617188 119.742188 132.460938 116.484375 137.957031 112.84375 Z M 137.957031 112.84375 " fill-opacity="1" fill-rule="nonzero"/><path fill="#242424" d="M 179.628906 177.140625 C 180.289062 179.210938 182.546875 182.226562 184.273438 183.589844 C 184.273438 183.554688 184.285156 183.515625 184.269531 183.492188 C 182.753906 181.429688 181.71875 178.679688 179.628906 177.140625 Z M 179.628906 177.140625 " fill-opacity="1" fill-rule="nonzero"/><path fill="#242424" d="M 186.117188 225.558594 C 186.253906 225.496094 186.164062 225.378906 186.1875 225.191406 C 185.796875 222.125 185.546875 218.835938 184.929688 215.785156 C 184.847656 216.375 185.03125 216.984375 185.050781 217.582031 C 185.355469 220.214844 185.449219 223.003906 186.117188 225.558594 Z M 186.117188 225.558594 " fill-opacity="1" fill-rule="nonzero"/><path fill="#242424" d="M 176.820312 157.941406 C 178.164062 157.957031 174.652344 156.421875 172.792969 157.730469 C 173.398438 157.839844 174.28125 157.726562 174.8125 157.765625 C 175.578125 157.835938 176.199219 157.894531 176.820312 157.941406 Z M 176.820312 157.941406 " fill-opacity="1" fill-rule="nonzero"/><path fill="#242424" d="M 228.269531 179.195312 C 228.265625 179.175781 228.273438 179.15625 228.265625 179.144531 C 227.816406 178.832031 226.421875 180.390625 226.472656 180.8125 C 227.074219 180.265625 227.457031 179.464844 228.269531 179.195312 Z M 228.269531 179.195312 " fill-opacity="1" fill-rule="nonzero"/><path fill="#242424" d="M 218.890625 217.78125 C 217.390625 216.8125 215.777344 215.878906 214.289062 214.972656 C 214.617188 215.574219 215.15625 216.078125 215.683594 216.519531 C 218.425781 218.402344 222.0625 220.898438 219.207031 224.394531 C 221.347656 222.851562 221.101562 219.234375 218.890625 217.78125 Z M 218.890625 217.78125 " fill-opacity="1" fill-rule="nonzero"/><g clip-path="url(#fb030a7a2e)"><g clip-path="url(#b0bd9ebe27)"><path fill="#242424" d="M 62.492188 202.261719 L 72.847656 202.261719 L 72.847656 212.617188 L 62.492188 212.617188 Z M 62.492188 202.261719 " fill-opacity="1" fill-rule="nonzero"/></g></g><g clip-path="url(#c31de5c171)"><g clip-path="url(#bb79103855)"><path fill="#242424" d="M 298.726562 202.261719 L 309.082031 202.261719 L 309.082031 212.617188 L 298.726562 212.617188 Z M 298.726562 202.261719 " fill-opacity="1" fill-rule="nonzero"/></g></g><g fill="#242424" fill-opacity="1"><g transform="translate(76.966151, 184.615306)"><g><path d="M -23.109375 -3.984375 L -18.609375 -3.390625 L -18.34375 -5.453125 L 0.171875 -3.03125 L -0.09375 -0.96875 L 4.40625 -0.375 L 6.25 -14.40625 L 4.015625 -17.40625 L -18.703125 -20.390625 L -21.234375 -18.34375 Z M -17.015625 -15.59375 L 1.5 -13.171875 L 0.765625 -7.53125 L -17.75 -9.953125 Z M -17.015625 -15.59375 "/></g></g></g><g fill="#242424" fill-opacity="1"><g transform="translate(79.905086, 163.087054)"><g><path d="M 0.125 -0.96875 L 4.390625 0.5625 L 7.3125 -7.625 L 3.046875 -9.15625 L 2.25 -6.90625 L 0.65625 -7.96875 L 2.921875 -14.3125 L 4.859375 -14.171875 L 4.09375 -12.0625 L 8.359375 -10.53125 L 11.375 -18.921875 L 7.109375 -20.453125 L 6.34375 -18.3125 L -17.609375 -20.328125 L -19 -16.453125 L 0.75 -2.75 Z M -10.296875 -15.5625 L -1.65625 -14.734375 L -3.15625 -10.59375 Z M -10.296875 -15.5625 "/></g></g></g><g fill="#242424" fill-opacity="1"><g transform="translate(88.909663, 139.247543)"><g><path d="M -10.890625 -8.0625 L -8.546875 -11.765625 L -13.078125 -14.640625 L -11.5625 -17 L 4.1875 -6.984375 L 3.0625 -5.234375 L 6.890625 -2.796875 L 11.5625 -10.125 L 7.734375 -12.5625 L 6.625 -10.8125 L -9.125 -20.828125 L -7.625 -23.203125 L -3.09375 -20.328125 L -0.734375 -24.015625 L -9.09375 -29.34375 L -19.25 -13.390625 Z M -10.890625 -8.0625 "/></g></g></g><g fill="#242424" fill-opacity="1"><g transform="translate(101.946076, 119.371796)"><g><path d="M -8.921875 -10.203125 L -5.84375 -13.3125 L -9.65625 -17.09375 L -7.671875 -19.09375 L 5.578125 -5.9375 L 4.109375 -4.453125 L 7.328125 -1.25 L 13.453125 -7.421875 L 10.234375 -10.625 L 8.78125 -9.140625 L -4.46875 -22.296875 L -2.484375 -24.296875 L 1.328125 -20.515625 L 4.40625 -23.625 L -2.625 -30.609375 L -15.953125 -17.1875 Z M -8.921875 -10.203125 "/></g></g></g><g fill="#242424" fill-opacity="1"><g transform="translate(119.039681, 102.764647)"><g><path d="M -12.09375 -20.109375 L -9.59375 -16.3125 L -7.859375 -17.453125 L 2.40625 -1.859375 L 0.671875 -0.71875 L 3.171875 3.078125 L 17.234375 -6.171875 L 11.171875 -15.375 L 7.375 -12.875 L 10.9375 -7.46875 L 6.1875 -4.34375 L -4.078125 -19.9375 L -2.34375 -21.078125 L -4.84375 -24.875 Z M -12.09375 -20.109375 "/></g></g></g><g fill="#242424" fill-opacity="1"><g transform="translate(137.450707, 91.014459)"><g><path d="M 0.8125 -0.5625 L 2.5 3.640625 L 18.09375 -2.671875 L 14.25 -12.203125 L 10.046875 -10.5 L 12.203125 -5.171875 L 6.9375 -3.03125 L 3.765625 -10.859375 L 9.03125 -13 L 7.328125 -17.21875 L 2.0625 -15.078125 L -0.0625 -20.34375 L 5.203125 -22.484375 L 6.625 -18.96875 L 10.828125 -20.671875 L 7.703125 -28.40625 L -7.890625 -22.09375 L -6.1875 -17.875 L -4.265625 -18.65625 L 2.734375 -1.34375 Z M 0.8125 -0.5625 "/></g></g></g><g fill="#242424" fill-opacity="1"><g transform="translate(158.268373, 83.314781)"><g/></g></g><g fill="#242424" fill-opacity="1"><g transform="translate(169.873919, 80.539641)"><g><path d="M -0.78125 -21 L 0.09375 -10.421875 L 2.890625 -8.046875 L 10.875 -8.703125 L 11.5 -1.171875 L 5.453125 -0.671875 L 5.171875 -4.015625 L 0.65625 -3.640625 L 1.0625 1.265625 L 4.296875 3.96875 L 13.078125 3.25 L 16.109375 -0.4375 L 15.234375 -10.96875 L 12.4375 -13.359375 L 4.453125 -12.703125 L 3.90625 -19.28125 L 9.953125 -19.78125 L 10.21875 -16.546875 L 14.734375 -16.921875 L 14.296875 -22.1875 L 11.546875 -24.46875 L 1.46875 -23.640625 Z M -0.78125 -21 "/></g></g></g><g fill="#242424" fill-opacity="1"><g transform="translate(190.111709, 79.177733)"><g><path d="M 0.828125 1.40625 L 3.296875 4.671875 L 12.25 5.5625 L 15.5 2.875 L 17.65625 -18.78125 L 15.0625 -22.0625 L 6.203125 -22.9375 L 2.984375 -20.25 Z M 12.984375 -17.6875 L 11.125 0.890625 L 5.46875 0.328125 L 7.328125 -18.25 Z M 12.984375 -17.6875 "/></g></g></g><g fill="#242424" fill-opacity="1"><g transform="translate(209.841551, 81.350624)"><g><path d="M -0.328125 4.40625 L 8 6.890625 L 9.296875 2.546875 L 7.3125 1.953125 L 9.703125 -6.109375 L 15.15625 -4.5 L 16.421875 -8.78125 L 10.96875 -10.390625 L 12.625 -15.953125 L 18.078125 -14.34375 L 16.984375 -10.640625 L 21.328125 -9.34375 L 23.71875 -17.40625 L 7.578125 -22.203125 L 6.28125 -17.84375 L 8.28125 -17.25 L 2.96875 0.65625 L 0.96875 0.0625 Z M -0.328125 4.40625 "/></g></g></g><g fill="#242424" fill-opacity="1"><g transform="translate(230.658988, 87.745958)"><g><path d="M 7.265625 -11.453125 L 11.109375 -9.375 L 13.65625 -14.09375 L 16.125 -12.765625 L 7.265625 3.671875 L 5.4375 2.6875 L 3.28125 6.671875 L 10.9375 10.796875 L 13.09375 6.8125 L 11.265625 5.828125 L 20.125 -10.609375 L 22.59375 -9.265625 L 20.046875 -4.546875 L 23.890625 -2.46875 L 28.609375 -11.1875 L 11.984375 -20.171875 Z M 7.265625 -11.453125 "/></g></g></g><g fill="#242424" fill-opacity="1"><g transform="translate(251.49239, 98.650218)"><g><path d="M 16.71875 -16.453125 L 13.609375 -13.140625 L 14.984375 -11.859375 L 3.203125 8.90625 L 6.5625 12.0625 L 16.953125 4.640625 L 10.515625 15.765625 L 13.96875 18.984375 L 33.390625 5.375 L 34.765625 6.65625 L 37.875 3.34375 L 31.46875 -2.640625 L 28.359375 0.671875 L 29.96875 2.171875 L 18.390625 10.546875 L 27.921875 -5.96875 L 26.5625 -7.234375 L 11.21875 3.640625 L 18.421875 -8.625 L 19.9375 -7.203125 L 23.046875 -10.515625 Z M 16.71875 -16.453125 "/></g></g></g><g fill="#242424" fill-opacity="1"><g transform="translate(275.262198, 122.107208)"><g><path d="M 0.6875 0.703125 L -3.171875 3.078125 L 1.390625 10.46875 L 5.25 8.09375 L 4 6.0625 L 5.828125 5.46875 L 9.359375 11.203125 L 8.0625 12.625 L 6.890625 10.71875 L 3.03125 13.09375 L 7.703125 20.671875 L 11.5625 18.296875 L 10.375 16.375 L 26.875 -1.109375 L 24.703125 -4.625 L 1.6875 2.3125 Z M 18.578125 1.640625 L 12.5625 7.890625 L 10.25 4.140625 Z M 18.578125 1.640625 "/></g></g></g><g fill="#242424" fill-opacity="1"><g transform="translate(288.284969, 144.03683)"><g><path d="M 22.453125 -6.78125 L 18.15625 -5.28125 L 18.84375 -3.328125 L 1.203125 2.78125 L 0.515625 0.828125 L -3.765625 2.3125 L -0.921875 10.515625 L 3.359375 9.03125 L 2.6875 7.0625 L 8.875 4.921875 L 9.375 6.40625 L 0.703125 15.15625 L 2.203125 19.5 L 6.484375 18.015625 L 5.859375 16.203125 L 10.953125 10.9375 L 11.453125 12.34375 L 14.53125 13.78125 L 25.828125 9.859375 L 27.203125 6.875 Z M 22.1875 6.328125 L 15.015625 8.8125 L 13.15625 3.4375 L 20.328125 0.953125 Z M 22.1875 6.328125 "/></g></g></g><g fill="#242424" fill-opacity="1"><g transform="translate(295.517947, 166.03649)"><g><path d="M 0.34375 0.90625 L -4.15625 1.5 L -1.96875 18.1875 L 8.234375 16.84375 L 7.640625 12.359375 L 1.9375 13.109375 L 1.203125 7.46875 L 9.5625 6.375 L 10.296875 12.015625 L 14.828125 11.421875 L 14.09375 5.78125 L 19.71875 5.046875 L 20.453125 10.6875 L 16.6875 11.171875 L 17.28125 15.65625 L 25.546875 14.578125 L 23.359375 -2.109375 L 18.859375 -1.515625 L 19.125 0.546875 L 0.609375 2.96875 Z M 0.34375 0.90625 "/></g></g></g><g fill="#242424" fill-opacity="1"><g transform="translate(70.626645, 238.745602)"><g><path d="M 9.515625 8.28125 L 11.078125 11.453125 C 10.054688 11.597656 9.046875 11.53125 8.046875 11.25 C 7.054688 10.96875 6.15625 10.5 5.34375 9.84375 C 4.53125 9.195312 3.878906 8.378906 3.390625 7.390625 C 2.941406 6.472656 2.691406 5.53125 2.640625 4.5625 C 2.585938 3.59375 2.71875 2.648438 3.03125 1.734375 C 3.34375 0.828125 3.816406 0.00390625 4.453125 -0.734375 C 5.085938 -1.472656 5.863281 -2.066406 6.78125 -2.515625 C 7.6875 -2.960938 8.625 -3.210938 9.59375 -3.265625 C 10.5625 -3.316406 11.5 -3.1875 12.40625 -2.875 C 13.320312 -2.570312 14.148438 -2.101562 14.890625 -1.46875 C 15.628906 -0.832031 16.222656 -0.0546875 16.671875 0.859375 C 17.160156 1.847656 17.414062 2.859375 17.4375 3.890625 C 17.457031 4.921875 17.28125 5.910156 16.90625 6.859375 C 16.53125 7.804688 15.972656 8.640625 15.234375 9.359375 L 13.6875 6.203125 C 14.132812 5.648438 14.378906 5 14.421875 4.25 C 14.472656 3.507812 14.335938 2.8125 14.015625 2.15625 C 13.671875 1.457031 13.175781 0.910156 12.53125 0.515625 C 11.894531 0.128906 11.195312 -0.078125 10.4375 -0.109375 C 9.675781 -0.148438 8.929688 0.0078125 8.203125 0.375 C 7.460938 0.738281 6.875 1.234375 6.4375 1.859375 C 6 2.484375 5.738281 3.164062 5.65625 3.90625 C 5.582031 4.65625 5.71875 5.378906 6.0625 6.078125 C 6.394531 6.742188 6.878906 7.28125 7.515625 7.6875 C 8.148438 8.101562 8.816406 8.300781 9.515625 8.28125 Z M 9.515625 8.28125 "/></g></g></g><g fill="#242424" fill-opacity="1"><g transform="translate(80.482265, 257.598718)"><g><path d="M 9.765625 4.171875 L 12.859375 -0.28125 L 7.640625 1.234375 Z M 8.421875 11.75 L 6.4375 8.984375 L 8.171875 6.453125 L 5 2 L 2.046875 2.84375 L 0.0625 0.09375 L 15.125 -3.53125 L 16.703125 -1.34375 Z M 8.421875 11.75 "/></g></g></g><g fill="#242424" fill-opacity="1"><g transform="translate(92.549817, 273.554585)"><g><path d="M 13.375 -2.6875 L 5.125 5.296875 L 2.921875 3.015625 L 11.171875 -4.96875 L 8.328125 -7.90625 L 10.390625 -9.90625 L 18.28125 -1.75 L 16.21875 0.25 Z M 13.375 -2.6875 "/></g></g></g><g fill="#242424" fill-opacity="1"><g transform="translate(104.588245, 285.475337)"><g><path d="M 12.90625 -4.453125 L 5.796875 4.5625 L 3.296875 2.59375 L 10.40625 -6.421875 L 7.1875 -8.953125 L 8.96875 -11.21875 L 17.90625 -4.1875 L 16.125 -1.921875 Z M 12.90625 -4.453125 "/></g></g></g><g fill="#242424" fill-opacity="1"><g transform="translate(118.09921, 295.630967)"><g><path d="M 1.09375 0.65625 L 8.453125 -11.671875 L 11.171875 -10.046875 L 5.28125 -0.1875 L 9.703125 2.453125 L 8.234375 4.921875 Z M 1.09375 0.65625 "/></g></g></g><g fill="#242424" fill-opacity="1"><g transform="translate(131.686853, 303.36933)"><g><path d="M 9.953125 1.203125 L 8.796875 3.84375 L 1.15625 0.5 L 6.90625 -12.65625 L 14.546875 -9.3125 L 13.390625 -6.6875 L 8.65625 -8.75 L 7.515625 -6.140625 L 12.046875 -4.171875 L 10.90625 -1.53125 L 6.375 -3.5 L 5.21875 -0.859375 Z M 9.953125 1.203125 "/></g></g></g><g fill="#242424" fill-opacity="1"><g transform="translate(146.517088, 309.392273)"><g/></g></g><g fill="#242424" fill-opacity="1"><g transform="translate(156.704172, 312.736808)"><g><path d="M 18.921875 3.171875 L 15.484375 2.59375 L 15.453125 -7.453125 L 11.046875 1.859375 L 7.984375 1.34375 L 6.84375 -8.890625 L 3.546875 0.59375 L 0.109375 0.015625 L 5.21875 -13.671875 L 8.9375 -13.046875 L 10.21875 -2.625 L 14.828125 -12.0625 L 18.546875 -11.4375 Z M 18.921875 3.171875 "/></g></g></g><g fill="#242424" fill-opacity="1"><g transform="translate(181.43777, 316.157211)"><g><path d="M 9 -5.625 L 7.125 -10.703125 L 5.375 -5.578125 Z M 14.453125 -0.1875 L 11.046875 -0.140625 L 9.984375 -3.015625 L 4.515625 -2.953125 L 3.5 -0.046875 L 0.109375 0 L 5.75 -14.4375 L 8.4375 -14.46875 Z M 14.453125 -0.1875 "/></g></g></g><g fill="#242424" fill-opacity="1"><g transform="translate(201.503581, 315.433666)"><g><path d="M 12.359375 -2.109375 L 9.234375 -1.578125 L 2.859375 -9.578125 L 4.375 -0.75 L 1.25 -0.21875 L -1.171875 -14.375 L 1.953125 -14.90625 L 8.328125 -6.90625 L 6.8125 -15.734375 L 9.9375 -16.265625 Z M 12.359375 -2.109375 "/></g></g></g><g fill="#242424" fill-opacity="1"><g transform="translate(220.497401, 311.775164)"><g><path d="M 6.828125 -8.109375 L 3.5 -12.375 L 3.40625 -6.953125 Z M 13.6875 -4.625 L 10.46875 -3.53125 L 8.5625 -5.9375 L 3.390625 -4.1875 L 3.3125 -1.125 L 0.109375 -0.03125 L 1.03125 -15.515625 L 3.578125 -16.375 Z M 13.6875 -4.625 "/></g></g></g><g fill="#242424" fill-opacity="1"><g transform="translate(239.4791, 304.948351)"><g><path d="M 1.921875 -14.234375 C 1.253906 -13.878906 0.738281 -13.367188 0.375 -12.703125 C 0.0195312 -12.046875 -0.164062 -11.328125 -0.1875 -10.546875 C -0.207031 -9.765625 -0.0234375 -9.015625 0.359375 -8.296875 C 0.742188 -7.597656 1.265625 -7.035156 1.921875 -6.609375 C 2.585938 -6.191406 3.296875 -5.953125 4.046875 -5.890625 C 4.796875 -5.835938 5.503906 -5.988281 6.171875 -6.34375 C 6.578125 -6.5625 6.972656 -6.851562 7.359375 -7.21875 C 7.753906 -7.582031 8.054688 -8.035156 8.265625 -8.578125 C 8.472656 -9.128906 8.523438 -9.78125 8.421875 -10.53125 L 5.203125 -8.796875 L 4.0625 -10.890625 L 10.296875 -14.25 L 10.53125 -13.828125 C 11.007812 -12.929688 11.289062 -12 11.375 -11.03125 C 11.46875 -10.070312 11.378906 -9.128906 11.109375 -8.203125 C 10.835938 -7.273438 10.398438 -6.429688 9.796875 -5.671875 C 9.203125 -4.921875 8.453125 -4.300781 7.546875 -3.8125 C 6.648438 -3.332031 5.710938 -3.050781 4.734375 -2.96875 C 3.765625 -2.894531 2.820312 -2.992188 1.90625 -3.265625 C 0.988281 -3.535156 0.148438 -3.972656 -0.609375 -4.578125 C -1.367188 -5.179688 -1.988281 -5.929688 -2.46875 -6.828125 C -2.945312 -7.710938 -3.226562 -8.640625 -3.3125 -9.609375 C -3.40625 -10.585938 -3.3125 -11.535156 -3.03125 -12.453125 C -2.757812 -13.367188 -2.320312 -14.207031 -1.71875 -14.96875 C -1.113281 -15.738281 -0.363281 -16.363281 0.53125 -16.84375 C 1.457031 -17.34375 2.4375 -17.625 3.46875 -17.6875 C 4.507812 -17.75 5.515625 -17.617188 6.484375 -17.296875 C 7.460938 -16.984375 8.335938 -16.457031 9.109375 -15.71875 L 6.03125 -14.078125 C 5.351562 -14.566406 4.648438 -14.796875 3.921875 -14.765625 C 3.203125 -14.742188 2.535156 -14.566406 1.921875 -14.234375 Z M 1.921875 -14.234375 "/></g></g></g><g fill="#242424" fill-opacity="1"><g transform="translate(258.942635, 293.999433)"><g><path d="M 14.890625 -12.09375 L 12.1875 -9.890625 L 4.625 -16.515625 L 8.703125 -7.0625 L 6.28125 -5.09375 L -2.15625 -11.015625 L 2.796875 -2.265625 L 0.078125 -0.0625 L -6.796875 -12.984375 L -3.875 -15.34375 L 4.796875 -9.40625 L 0.75 -19.109375 L 3.6875 -21.484375 Z M 14.890625 -12.09375 "/></g></g></g><g fill="#242424" fill-opacity="1"><g transform="translate(277.721677, 277.731136)"><g><path d="M 4.203125 -9.09375 L 6.359375 -7.1875 L 0.84375 -0.953125 L -9.90625 -10.484375 L -4.390625 -16.71875 L -2.234375 -14.796875 L -5.65625 -10.9375 L -3.53125 -9.0625 L -0.25 -12.75 L 1.90625 -10.84375 L -1.375 -7.15625 L 0.78125 -5.234375 Z M 4.203125 -9.09375 "/></g></g></g><g fill="#242424" fill-opacity="1"><g transform="translate(288.305883, 265.364747)"><g><path d="M 6.921875 -10.46875 L 5.171875 -7.8125 L -5.015625 -8.640625 L 2.453125 -3.703125 L 0.703125 -1.0625 L -11.28125 -8.984375 L -9.53125 -11.625 L 0.65625 -10.796875 L -6.8125 -15.734375 L -5.0625 -18.390625 Z M 6.921875 -10.46875 "/></g></g></g><g fill="#242424" fill-opacity="1"><g transform="translate(298.527737, 249.061208)"><g><path d="M -7.25 -11.5625 L 3.140625 -6.671875 L 1.796875 -3.796875 L -8.59375 -8.6875 L -10.34375 -4.984375 L -12.9375 -6.21875 L -8.09375 -16.5 L -5.5 -15.265625 Z M -7.25 -11.5625 "/></g></g></g></svg>